<svg width="42" height="42" viewBox="0 0 42 42" fill="none" xmlns="http://www.w3.org/2000/svg">
<g clip-path="url(#clip0_6064_36337)">
<path d="M19.6504 2.15723C20.4925 1.67392 21.5386 1.67512 22.3809 2.1582L36.6445 10.3906V10.3896C37.5044 10.8901 38.0174 11.7793 38.0176 12.7617V29.2266C38.0174 30.1478 37.5512 31.0005 36.7988 31.502L36.6445 31.5977L22.3809 39.8301C21.5388 40.3131 20.4934 40.3132 19.6514 39.8301L5.3877 31.5977H5.38672C4.52771 31.0971 4.0148 30.2084 4.01465 29.2266V12.9717H4.03125V12.7617C4.03139 11.8383 4.48528 10.9867 5.23438 10.4863L5.3877 10.3906L19.6514 2.1582L19.6504 2.15723Z" fill="#213147" stroke="black" stroke-width="0.42"/>
<path d="M24.1116 24.1956L22.0788 29.7732C22.0284 29.9244 22.0284 30.0924 22.0788 30.2604L25.5732 39.8532L29.622 37.518L24.7668 24.1956C24.6492 23.8931 24.2292 23.8931 24.1116 24.1956Z" fill="#12AAFF"/>
<path d="M28.2014 14.8205C28.0838 14.5182 27.6638 14.5182 27.5462 14.8205L25.5134 20.3981C25.463 20.5493 25.463 20.7173 25.5134 20.8853L31.2422 36.5933L35.291 34.2581L28.2014 14.8373V14.8205Z" fill="#12AAFF"/>
<path d="M20.9992 2.604C21.1 2.604 21.2008 2.6376 21.2848 2.688L36.7072 11.592C36.892 11.6928 36.9928 11.8944 36.9928 12.096V29.904C36.9928 30.1056 36.8752 30.3072 36.7072 30.408L21.2848 39.312C21.2008 39.3624 21.1 39.396 20.9992 39.396C20.8984 39.396 20.7976 39.3624 20.7136 39.312L5.29117 30.408C5.10637 30.3072 5.00557 30.1056 5.00557 29.904V12.0792C5.00557 11.8776 5.12317 11.676 5.29117 11.5752L20.7136 2.6712C20.7976 2.6208 20.8984 2.5872 20.9992 2.5872V2.604ZM20.9992 0C20.4448 0 19.9072 0.1344 19.4032 0.42L3.98077 9.324C2.98957 9.8952 2.38477 10.9368 2.38477 12.0792V29.8872C2.38477 31.0296 2.98957 32.0712 3.98077 32.6424L19.4032 41.5464C19.8904 41.832 20.4448 41.9664 20.9992 41.9664C21.5536 41.9664 22.0912 41.832 22.5952 41.5464L38.0176 32.6424C39.0088 32.0712 39.6136 31.0296 39.6136 29.8872V12.0792C39.6136 10.9368 39.0088 9.8952 38.0176 9.324L22.5784 0.42C22.0912 0.1344 21.5368 0 20.9824 0H20.9992Z" fill="#9DCCED"/>
<path d="M10.7842 36.6163L12.2122 32.7188L15.0682 35.0875L12.397 37.5403L10.7842 36.6163Z" fill="#213147"/>
<path d="M19.6999 10.8137H15.7855C15.4999 10.8137 15.2311 10.9985 15.1303 11.2673L6.74707 34.2497L10.7959 36.5849L20.0359 11.2673C20.1199 11.0321 19.9519 10.7969 19.7167 10.7969L19.6999 10.8137Z" fill="white"/>
<path d="M26.5518 10.8137H22.6374C22.3518 10.8137 22.083 10.9985 21.9822 11.2673L12.4062 37.5089L16.455 39.8441L26.871 11.2673C26.955 11.0321 26.787 10.7969 26.5518 10.7969V10.8137Z" fill="white"/>
</g>
<defs>
<clipPath id="clip0_6064_36337">
<rect width="42" height="42" fill="white"/>
</clipPath>
</defs>
</svg>
