<svg width="19" height="19" viewBox="0 0 19 19" fill="none" xmlns="http://www.w3.org/2000/svg">
<g clip-path="url(#clip0_16107_38)">
<rect x="1.3543" y="1.35424" width="16.2914" height="16.2914" rx="8" fill="white"/>
<path d="M2.82693 6.30681V12.693C2.82693 13.1036 3.04198 13.475 3.40039 13.6836L8.93295 16.8767C9.28484 17.0787 9.72145 17.0787 10.0733 16.8767L15.6059 13.6836C15.9578 13.4815 16.1794 13.1036 16.1794 12.693V6.30681C16.1794 5.89626 15.9643 5.52482 15.6059 5.31629L10.0733 2.12318C9.72145 1.92116 9.28484 1.92116 8.93295 2.12318L3.40039 5.31629C3.04849 5.5183 2.83345 5.89626 2.83345 6.30681H2.82693Z" fill="#1C1C1C"/>
<path d="M10.7056 10.7381L9.91712 12.9016C9.89757 12.9602 9.89757 13.0254 9.91712 13.0905L11.2726 16.8115L12.8431 15.9057L10.9598 10.7381C10.9142 10.6208 10.7512 10.6208 10.7056 10.7381Z" fill="white"/>
<path d="M12.289 7.10186C12.2434 6.98456 12.0804 6.98456 12.0348 7.10186L11.2463 9.26535C11.2268 9.324 11.2268 9.38917 11.2463 9.45433L13.4685 15.5473L15.039 14.6415L12.289 7.10837V7.10186Z" fill="white"/>
<path d="M9.49989 2.36431C9.53899 2.36431 9.57809 2.37734 9.61067 2.39689L15.5929 5.85066C15.6646 5.88976 15.7037 5.96796 15.7037 6.04616V12.9537C15.7037 13.0319 15.658 13.1101 15.5929 13.1492L9.61067 16.603C9.57809 16.6225 9.53899 16.6356 9.49989 16.6356C9.46079 16.6356 9.42169 16.6225 9.38911 16.603L3.40691 13.1492C3.33523 13.1101 3.29613 13.0319 3.29613 12.9537V6.03964C3.29613 5.96145 3.34174 5.88325 3.40691 5.84415L9.38911 2.39037C9.42169 2.37082 9.46079 2.35779 9.49989 2.35779V2.36431ZM9.49989 1.35424C9.28484 1.35424 9.07631 1.40637 8.88082 1.51715L2.89862 4.97093C2.51414 5.19249 2.27954 5.59652 2.27954 6.03964V12.9472C2.27954 13.3903 2.51414 13.7943 2.89862 14.0159L8.88082 17.4697C9.0698 17.5805 9.28484 17.6326 9.49989 17.6326C9.71494 17.6326 9.92347 17.5805 10.119 17.4697L16.1012 14.0159C16.4856 13.7943 16.7202 13.3903 16.7202 12.9472V6.03964C16.7202 5.59652 16.4856 5.19249 16.1012 4.97093L10.1124 1.51715C9.92347 1.40637 9.70842 1.35424 9.49337 1.35424H9.49989Z" fill="#4E4E4E"/>
<path d="M5.53802 15.5538L6.09193 14.042L7.19974 14.9608L6.16361 15.9122L5.53802 15.5538Z" fill="#1C1C1C"/>
<path d="M8.99171 5.55088H7.47336C7.36258 5.55088 7.25831 5.62256 7.21921 5.72682L3.96745 14.6415L5.53794 15.5473L9.12205 5.72682C9.15463 5.63559 9.08946 5.54436 8.99823 5.54436L8.99171 5.55088Z" fill="white"/>
<path d="M11.6504 5.55088H10.132C10.0213 5.55088 9.917 5.62256 9.8779 5.72682L6.16347 15.9057L7.73396 16.8115L11.7742 5.72682C11.8068 5.63559 11.7416 5.54436 11.6504 5.54436V5.55088Z" fill="white"/>
</g>
<rect x="0.689302" y="0.68924" width="17.6214" height="17.6214" rx="8.665" stroke="white" stroke-width="1.33"/>
<defs>
<clipPath id="clip0_16107_38">
<rect x="1.3543" y="1.35424" width="16.2914" height="16.2914" rx="8" fill="white"/>
</clipPath>
</defs>
</svg>
