<svg width="19" height="19" viewBox="0 0 19 19" fill="none" xmlns="http://www.w3.org/2000/svg">
<rect x="0.689302" y="0.68924" width="17.6214" height="17.6214" rx="8.665" fill="#1C1C1C"/>
<rect x="0.689302" y="0.68924" width="17.6214" height="17.6214" rx="8.665" stroke="white" stroke-width="1.33"/>
<g clip-path="url(#clip0_16055_23)">
<path d="M5.61105 11.9505C5.68273 11.8788 5.78129 11.837 5.88582 11.837H15.3654C15.5387 11.837 15.6253 12.046 15.5028 12.1685L13.6302 14.0411C13.5585 14.1128 13.4599 14.1546 13.3554 14.1546H3.87581C3.70258 14.1546 3.61597 13.9455 3.73842 13.8231L5.61105 11.9505Z" fill="white"/>
<path d="M5.61105 4.95876C5.68572 4.88708 5.78428 4.84527 5.88582 4.84527H15.3654C15.5387 4.84527 15.6253 5.05434 15.5028 5.17679L13.6302 7.04941C13.5585 7.12109 13.4599 7.16291 13.3554 7.16291H3.87581C3.70258 7.16291 3.61597 6.95384 3.73842 6.83139L5.61105 4.95876Z" fill="white"/>
<path d="M13.6302 8.43221C13.5585 8.36053 13.4599 8.31871 13.3554 8.31871H3.87581C3.70258 8.31871 3.61597 8.52778 3.73842 8.65023L5.61105 10.5229C5.68273 10.5945 5.78129 10.6364 5.88582 10.6364H15.3654C15.5387 10.6364 15.6253 10.4273 15.5028 10.3048L13.6302 8.43221Z" fill="white"/>
</g>
<defs>
<clipPath id="clip0_16055_23">
<rect width="11.6654" height="9.14286" fill="white" transform="translate(3.68157 4.84527) scale(1.01821)"/>
</clipPath>
</defs>
</svg>
