<svg width="19" height="19" viewBox="0 0 19 19" fill="none" xmlns="http://www.w3.org/2000/svg">
<rect x="0.689302" y="0.689178" width="17.6214" height="17.6214" rx="8.665" fill="#1C1C1C"/>
<rect x="0.689302" y="0.689178" width="17.6214" height="17.6214" rx="8.665" stroke="white" stroke-width="1.33"/>
<path d="M9.37315 4.88424L9.30809 5.10769V11.5912L9.37315 11.6569L12.3495 9.8779L9.37315 4.88424Z" fill="#EFEFEF"/>
<path d="M9.3733 4.88424L6.39689 9.8779L9.3733 11.6569V8.50993V4.88424Z" fill="#EFEFEF"/>
<path d="M9.37335 12.2266L9.33668 12.2719V14.5814L9.37335 14.6896L12.3515 10.4486L9.37335 12.2266Z" fill="#FAFAFA"/>
<path d="M9.3733 14.6896V12.2266L6.39689 10.4486L9.3733 14.6896Z" fill="#EFEFEF"/>
<path d="M9.37322 11.6568L12.3496 9.87785L9.37322 8.50988V11.6568Z" fill="white"/>
<path d="M6.39689 9.87785L9.3733 11.6568V8.50988L6.39689 9.87785Z" fill="#F6F6F6"/>
</svg>
