<svg width="19" height="19" viewBox="0 0 19 19" fill="none" xmlns="http://www.w3.org/2000/svg">
<g clip-path="url(#clip0_16193_5)">
<path d="M9.5 17.6456C13.9987 17.6456 17.6457 13.9987 17.6457 9.49994C17.6457 5.00119 13.9987 1.35424 9.5 1.35424C5.00126 1.35424 1.3543 5.00119 1.3543 9.49994C1.3543 13.9987 5.00126 17.6456 9.5 17.6456Z" fill="#1C1C1C"/>
<g clip-path="url(#clip1_16193_5)">
<path d="M14.8277 8.25463C14.3027 7.76987 13.5764 7.0296 12.9849 6.50458L12.9499 6.48008C12.8917 6.43332 12.826 6.39664 12.7557 6.37158C11.3294 6.10557 4.69141 4.86478 4.56191 4.88053C4.52562 4.88561 4.49094 4.89877 4.46041 4.91903L4.42716 4.94528C4.38621 4.98687 4.35511 5.0371 4.33615 5.09229L4.3274 5.11504V5.23929V5.25854C5.07467 7.33936 8.02526 14.1558 8.60628 15.7554C8.64128 15.8639 8.70778 16.0704 8.83204 16.0809H8.86004C8.92654 16.0809 9.21005 15.7064 9.21005 15.7064C9.21005 15.7064 14.2782 9.56017 14.791 8.90565C14.8573 8.82503 14.9159 8.73831 14.966 8.64665C14.9787 8.57493 14.9727 8.50112 14.9485 8.43242C14.9243 8.36372 14.8827 8.30247 14.8277 8.25463ZM10.5103 8.9704L12.6734 7.1766L13.9422 8.34564L10.5103 8.9704ZM9.67031 8.85315L5.9462 5.80106L11.9716 6.91234L9.67031 8.85315ZM10.0063 9.65293L13.8179 9.03866L9.46031 14.2888L10.0063 9.65293ZM5.44044 6.10557L9.3588 9.43067L8.79179 14.2923L5.44044 6.10557Z" fill="white"/>
</g>
</g>
<rect x="0.689302" y="0.68924" width="17.6214" height="17.6214" rx="8.665" stroke="white" stroke-width="1.33"/>
<defs>
<clipPath id="clip0_16193_5">
<rect x="1.3543" y="1.35424" width="16.2914" height="16.2914" rx="8" fill="white"/>
</clipPath>
<clipPath id="clip1_16193_5">
<rect width="11" height="11" fill="white" transform="translate(4.05619 4.88051) scale(1.01821)"/>
</clipPath>
</defs>
</svg>
