<svg width="19" height="19" viewBox="0 0 19 19" fill="none" xmlns="http://www.w3.org/2000/svg">
<rect x="0.689302" y="0.689178" width="17.6214" height="17.6214" rx="8.665" stroke="white" stroke-width="1.33"/>
<path fill-rule="evenodd" clip-rule="evenodd" d="M9.5 1.35418C13.9991 1.35418 17.6457 5.00081 17.6457 9.49988C17.6457 13.9989 13.9991 17.6456 9.5 17.6456C5.00094 17.6456 1.3543 13.9989 1.3543 9.49988C1.3543 5.00081 5.00094 1.35418 9.5 1.35418Z" fill="#1C1C1C"/>
<path d="M5.83127 9.49984L5.83715 11.6538L7.66732 12.7307V13.9917L4.76607 12.2901V8.86998L5.83127 9.49984ZM5.83127 7.34593V8.60107L4.76541 7.97056V6.71542L5.83127 6.08491L6.90235 6.71542L5.83127 7.34593ZM8.43163 6.71542L9.49749 6.08491L10.5686 6.71542L9.49749 7.34593L8.43163 6.71542Z" fill="white"/>
<path d="M6.60123 11.2073V9.94629L7.66709 10.5768V11.8319L6.60123 11.2073ZM8.4314 13.1824L9.49726 13.8129L10.5683 13.1824V14.4375L9.49726 15.068L8.4314 14.4375V13.1824ZM12.097 6.71542L13.1628 6.08491L14.2339 6.71542V7.97056L13.1628 8.60107V7.34593L12.097 6.71542ZM13.1628 11.6537L13.1687 9.49984L14.2346 8.86933V12.2895L11.3333 13.9911V12.7301L13.1628 11.6537Z" fill="white"/>
<path d="M12.3987 11.2074L11.3328 11.832V10.5768L12.3987 9.94634V11.2074Z" fill="white"/>
<path d="M12.3985 7.79237L12.4044 9.05339L10.569 10.1303V12.2895L9.50313 12.9141L8.43727 12.2895V10.1303L6.60188 9.05339V7.79237L7.67231 7.16186L9.4966 8.24404L11.332 7.16186L12.4031 7.79237H12.3985ZM6.60123 5.63912L9.49726 3.93165L12.3985 5.63912L11.3327 6.26962L9.49726 5.18745L7.66709 6.26962L6.60123 5.63912Z" fill="white"/>
</svg>
