<svg width="19" height="19" viewBox="0 0 19 19" fill="none" xmlns="http://www.w3.org/2000/svg">
<rect x="0.689302" y="0.68924" width="17.6214" height="17.6214" rx="8.665" fill="#1C1C1C"/>
<rect x="0.689302" y="0.68924" width="17.6214" height="17.6214" rx="8.665" stroke="white" stroke-width="1.33"/>
<path d="M9.83102 12.5632C10.0133 12.4532 10.1329 12.246 10.1502 12.0103L10.1609 10.2975L10.1986 9.15297L10.1956 7.46288C10.2001 7.25034 10.3197 7.04312 10.5148 6.90999L11.6647 6.25415C11.7593 6.19763 11.8671 6.16724 11.9773 6.16608C12.0874 6.16492 12.1959 6.19303 12.2916 6.24753L13.4036 6.88951C13.5813 6.9921 13.7059 7.18752 13.7109 7.43553L13.6954 8.74634C13.6913 8.95912 13.5717 9.16635 13.3762 9.29922L12.2267 9.95532C12.0445 10.0653 11.7999 10.0775 11.5997 9.96194L10.8656 9.53811L10.85 10.6954L11.6062 11.132C11.7843 11.2348 12.0156 11.2455 12.2331 11.1253L14.3413 9.887C14.5235 9.77705 14.6432 9.56983 14.6603 9.33456L14.6833 6.83061C14.6915 6.7237 14.6689 6.61667 14.6183 6.52214C14.5677 6.42762 14.4911 6.34953 14.3976 6.29707L12.3073 5.09023C12.1292 4.98739 11.8978 4.9767 11.6803 5.09685L9.55864 6.35856C9.37622 6.46781 9.25658 6.67504 9.23968 6.91101L9.21977 8.58786L9.20414 9.74516L9.18511 11.4225C9.18057 11.6351 9.06093 11.8423 8.86616 11.975L7.73802 12.644C7.55649 12.7537 7.31192 12.766 7.11176 12.6504L5.99981 12.0084C5.82169 11.9056 5.69695 11.7113 5.69181 11.4626L5.69451 10.175C5.69861 9.96218 5.81825 9.75496 6.01372 9.62209L7.14072 8.95301C7.2353 8.89654 7.34316 8.86618 7.45331 8.86502C7.56345 8.86386 7.67193 8.89194 7.76768 8.94639L8.47929 9.35724L8.49493 8.19994L7.76127 7.77636C7.58315 7.67352 7.35182 7.66283 7.13431 7.78298L5.01262 9.04469C4.83065 9.1542 4.71101 9.36142 4.69367 9.59714L4.66184 12.0654C4.65799 12.2778 4.76967 12.4957 4.96984 12.6113L7.08263 13.8311C7.26031 13.9337 7.49164 13.9444 7.70959 13.8245L9.83102 12.5632Z" fill="white"/>
</svg>
