<svg width="19" height="19" viewBox="0 0 19 19" fill="none" xmlns="http://www.w3.org/2000/svg">
<g clip-path="url(#clip0_16055_265)">
<path d="M14.5239 4.14879H4.46512V13.291H14.5239V4.14879Z" fill="white"/>
<path fill-rule="evenodd" clip-rule="evenodd" d="M17.6403 9.49986C17.6403 13.9927 13.9958 17.6347 9.50005 17.6347C5.0043 17.6347 1.35977 13.9927 1.35977 9.49986C1.35977 5.00709 5.0043 1.36499 9.50005 1.36499C13.9958 1.36499 17.6403 5.00709 17.6403 9.49986ZM7.19333 12.7371H5.61353C5.28156 12.7371 5.11759 12.7371 5.01761 12.6732C4.90962 12.6032 4.84363 12.4873 4.83563 12.3594C4.82962 12.2416 4.91162 12.0976 5.0756 11.8098L8.97632 4.93886C9.1423 4.64709 9.22628 4.5012 9.33227 4.44725C9.44625 4.3893 9.58224 4.3893 9.69623 4.44725C9.80222 4.5012 9.88621 4.64709 10.0522 4.93886L10.8541 6.33776L10.8582 6.34489C11.0374 6.65791 11.1284 6.81664 11.168 6.98324C11.212 7.1651 11.212 7.35694 11.168 7.5388C11.1281 7.70667 11.0381 7.86655 10.8561 8.1843L8.80713 11.8039L8.80183 11.8131C8.62138 12.1287 8.52993 12.2887 8.40318 12.4093C8.2652 12.5413 8.09922 12.6371 7.91724 12.6912C7.75126 12.7371 7.56529 12.7371 7.19333 12.7371ZM11.1828 12.7371H13.4465C13.7805 12.7371 13.9485 12.7371 14.0485 12.6713C14.1565 12.6013 14.2244 12.4833 14.2305 12.3555C14.2363 12.2414 14.1561 12.1031 13.9989 11.8321C13.9935 11.8228 13.988 11.8135 13.9825 11.8039L12.8486 9.86544L12.8357 9.84361C12.6764 9.57435 12.596 9.43837 12.4927 9.38582C12.3787 9.32786 12.2447 9.32786 12.1307 9.38582C12.0267 9.43977 11.9428 9.58166 11.7768 9.86743L10.6469 11.8059L10.643 11.8126C10.4776 12.0979 10.395 12.2405 10.4009 12.3575C10.4089 12.4854 10.4749 12.6032 10.5829 12.6732C10.6809 12.7371 10.8489 12.7371 11.1828 12.7371Z" fill="#1C1C1C"/>
</g>
<rect x="0.689302" y="0.689178" width="17.6214" height="17.6214" rx="8.665" stroke="white" stroke-width="1.33"/>
<defs>
<clipPath id="clip0_16055_265">
<rect x="1.3543" y="1.35418" width="16.2914" height="16.2914" rx="8" fill="white"/>
</clipPath>
</defs>
</svg>
