<svg width="42" height="42" viewBox="0 0 42 42" fill="none" xmlns="http://www.w3.org/2000/svg">
<g clip-path="url(#clip0_6064_36428)">
<path d="M21 42C32.598 42 42 32.598 42 21C42 9.40202 32.598 0 21 0C9.40202 0 0 9.40202 0 21C0 32.598 9.40202 42 21 42Z" fill="#F70025"/>
<g clip-path="url(#clip1_6064_36428)">
<path d="M34.7354 17.7927C33.3818 16.543 31.5095 14.6345 29.9845 13.281L29.8943 13.2178C29.7441 13.0973 29.5749 13.0027 29.3935 12.9381C25.7164 12.2523 8.60348 9.05353 8.26961 9.09413C8.17606 9.10724 8.08664 9.14115 8.00793 9.19339L7.92221 9.26107C7.81665 9.36827 7.73648 9.49777 7.6876 9.64005L7.66504 9.6987V10.019V10.0687C9.59154 15.4331 17.1983 33.0062 18.6962 37.13C18.7864 37.4097 18.9579 37.9421 19.2782 37.9691H19.3504C19.5218 37.9691 20.2527 37.0036 20.2527 37.0036C20.2527 37.0036 33.3187 21.1585 34.6406 19.4711C34.8117 19.2632 34.9628 19.0397 35.0918 18.8034C35.1247 18.6185 35.1092 18.4282 35.0467 18.2511C34.9843 18.074 34.877 17.9161 34.7354 17.7927ZM23.6049 19.638L29.1814 15.0135L32.4524 18.0273L23.6049 19.638ZM21.4393 19.3357L11.8384 11.4673L27.3722 14.3322L21.4393 19.3357ZM22.3056 21.3976L32.1321 19.814L20.8979 33.3491L22.3056 21.3976ZM10.5345 12.2523L20.6362 20.8246L19.1744 33.3582L10.5345 12.2523Z" fill="white"/>
</g>
</g>
<defs>
<clipPath id="clip0_6064_36428">
<rect width="42" height="42" rx="21" fill="white"/>
</clipPath>
<clipPath id="clip1_6064_36428">
<rect width="28.875" height="28.875" fill="white" transform="translate(6.96582 9.09375)"/>
</clipPath>
</defs>
</svg>
