<svg width="20" height="20" viewBox="0 0 20 20" fill="none" xmlns="http://www.w3.org/2000/svg">
<rect width="19.9976" height="19.9976" rx="9.53011" fill="#50AF95"/>
<path fill-rule="evenodd" clip-rule="evenodd" d="M6.00618 4.86331L3.81842 9.50995C3.8101 9.52723 3.80746 9.54676 3.81089 9.56566C3.81433 9.58457 3.82365 9.60187 3.83751 9.61504L9.74612 15.3401C9.7629 15.3563 9.78526 15.3654 9.80851 15.3654C9.83176 15.3654 9.85412 15.3563 9.8709 15.3401L15.7795 9.61539C15.7934 9.60223 15.8027 9.58493 15.8061 9.56602C15.8096 9.54711 15.8069 9.52759 15.7986 9.51031L13.6108 4.86367C13.6038 4.84806 13.5924 4.83484 13.5781 4.82559C13.5638 4.81633 13.5472 4.81144 13.5302 4.81148H6.08748C6.07043 4.81127 6.05368 4.81605 6.03925 4.82524C6.02483 4.83444 6.01334 4.84766 6.00618 4.86331Z" fill="white"/>
<path fill-rule="evenodd" clip-rule="evenodd" d="M10.5675 9.99178C10.5251 9.995 10.3059 10.0082 9.81702 10.0082C9.42817 10.0082 9.1521 9.99643 9.05524 9.99178C7.55255 9.92494 6.43092 9.66044 6.43092 9.34376C6.43092 9.02707 7.55255 8.76293 9.05524 8.69501V9.72835C9.15351 9.7355 9.43489 9.7523 9.82373 9.7523C10.2903 9.7523 10.524 9.73264 10.5661 9.72871V8.69573C12.0656 8.76328 13.1847 9.02778 13.1847 9.34376C13.1847 9.65973 12.0659 9.92423 10.5661 9.99143L10.5675 9.99178ZM10.5675 8.58886V7.66417H12.6601V6.2541H6.96257V7.66417H9.05489V8.5885C7.35424 8.66749 6.07531 9.00813 6.07531 9.41632C6.07531 9.8245 7.35424 10.1648 9.05489 10.2441V13.2073H10.5671V10.2431C12.2639 10.1641 13.5407 9.82379 13.5407 9.41596C13.5407 9.00813 12.2649 8.66785 10.5671 8.5885L10.5675 8.58886Z" fill="#50AF95"/>
</svg>
