<svg width="102" height="38" viewBox="0 0 102 38" fill="none" xmlns="http://www.w3.org/2000/svg">
<g clip-path="url(#clip0_6040_10457)">
<path d="M40.5205 17.0499V23.0499H42.0113V14.6834H40.4105L37.8076 18.6395L35.2048 14.6834H33.604V23.0499H35.0948V17.0737L37.771 20.994H37.8199L40.5205 17.0499Z" fill="black"/>
</g>
<g clip-path="url(#clip1_6040_10457)">
<path d="M52.108 20.468L47.5389 14.6873H46.1489V23.0479H47.6386V17.0999L52.3421 23.0479H53.5977V14.6873H52.108V20.468Z" fill="black"/>
</g>
<g clip-path="url(#clip2_6040_10457)">
<path d="M64.0602 14.6873H57.7352V23.0473H64.1213V21.7216H59.2249V19.4882H62.3821V18.1626H59.2249V16.0129H64.0602V14.6873Z" fill="black"/>
</g>
<g clip-path="url(#clip3_6040_10457)">
<path d="M74.5839 14.6873H68.2587V23.0476H74.6447V21.7219H69.7482V19.4884H72.9057V18.1628H69.7482V16.013H74.5839V14.6873Z" fill="black"/>
</g>
<g clip-path="url(#clip4_6040_10457)">
<g clip-path="url(#clip5_6040_10457)">
<path d="M85.4311 17.4087C85.4311 17.8774 85.3412 18.2905 85.1613 18.648C84.9816 19.0054 84.7363 19.3033 84.4258 19.5416C84.1152 19.7799 83.7515 19.9626 83.3346 20.0897C82.9178 20.2089 82.4723 20.2684 81.9982 20.2684H80.2941V22.9494H78.786V14.6086H82.1699C82.6685 14.6086 83.118 14.6761 83.5185 14.8112C83.9272 14.9383 84.2705 15.125 84.5484 15.3712C84.8344 15.6175 85.051 15.9114 85.1982 16.2529C85.3535 16.5945 85.4311 16.9798 85.4311 17.4087ZM83.8986 17.4445C83.8986 16.944 83.731 16.5707 83.3959 16.3244C83.0608 16.0702 82.6113 15.9431 82.0473 15.9431H80.2941V18.9458H82.0473C82.6194 18.9458 83.069 18.8108 83.3959 18.5407C83.731 18.2627 83.8986 17.8973 83.8986 17.4445Z" fill="url(#paint0_linear_6040_10457)"/>
</g>
<g clip-path="url(#clip6_6040_10457)">
<path d="M90.549 14.5496L94.3239 22.9473H92.7306L91.8604 20.9342H87.8036L86.9211 22.9473H85.3768L89.1518 14.5496H90.549ZM91.3089 19.6358L89.8259 16.3006L88.3551 19.6358H91.3089Z" fill="url(#paint1_linear_6040_10457)"/>
</g>
<g clip-path="url(#clip7_6040_10457)">
<path d="M98.4965 19.625V22.9494H96.9762V19.6608L93.5679 14.6086H95.3456L97.7486 18.3024L100.176 14.6086H101.905L98.4965 19.625Z" fill="url(#paint2_linear_6040_10457)"/>
</g>
</g>
<g filter="url(#filter0_d_6040_10457)">
<path d="M8.27812 18.873C8.27812 13.0219 13.0214 8.27861 18.8725 8.27861C24.7236 8.27861 29.4669 13.0219 29.4669 18.873C29.4669 24.7241 24.7236 29.4674 18.8725 29.4674C13.0214 29.4674 8.27812 24.7241 8.27812 18.873Z" fill="url(#paint3_linear_6040_10457)" shape-rendering="crispEdges"/>
<path d="M8.27812 18.873C8.27812 13.0219 13.0214 8.27861 18.8725 8.27861C24.7236 8.27861 29.4669 13.0219 29.4669 18.873C29.4669 24.7241 24.7236 29.4674 18.8725 29.4674C13.0214 29.4674 8.27812 24.7241 8.27812 18.873Z" fill="url(#paint4_linear_6040_10457)" shape-rendering="crispEdges"/>
<g clip-path="url(#clip8_6040_10457)">
<path d="M8.93306 18.8623C8.93306 13.378 13.3884 8.93208 18.8727 8.93208C24.357 8.93208 28.8124 13.378 28.8124 18.8623C28.8124 24.3465 24.357 28.7924 18.8727 28.7924C13.3884 28.7924 8.93306 24.3465 8.93306 18.8623Z" fill="#05121F"/>
<g clip-path="url(#clip9_6040_10457)">
<path fill-rule="evenodd" clip-rule="evenodd" d="M22.4476 19.5094L22.4315 15.7782C22.4307 15.5861 22.3542 15.404 22.2183 15.2683C22.0825 15.1325 21.9003 15.0553 21.708 15.0553C21.5157 15.0553 21.3335 15.1325 21.1976 15.2683C21.0618 15.4041 20.9846 15.5862 20.9846 15.7784V21.9518C20.9846 22.5135 20.7614 23.0477 20.3642 23.4447C19.9672 23.8417 19.4327 24.0648 18.871 24.0648C18.3092 24.0648 17.7747 23.8417 17.3777 23.4447C16.9806 23.0477 16.7574 22.5135 16.7574 21.9518V15.7784C16.7574 15.5862 16.6802 15.4041 16.5443 15.2683C16.4085 15.1325 16.2262 15.0553 16.0339 15.0553C15.8416 15.0553 15.6594 15.1325 15.5236 15.2683C15.3877 15.4041 15.3114 15.5861 15.3106 15.7782L15.2944 19.5094C15.2363 19.9766 15.0233 20.4088 14.6903 20.7419C14.2932 21.1388 13.7587 21.362 13.1969 21.362C12.6352 21.362 12.1006 21.1388 11.7036 20.7419C11.3706 20.4088 11.1575 19.9763 11.0994 19.5091L11.0823 18.4829L9.17415 18.4825H8.27959L8.28675 18.337C8.41595 15.7067 9.51537 13.2356 11.3775 11.3738C13.3713 9.38051 16.0512 8.27074 18.8709 8.27074C21.6906 8.27074 24.3704 9.38051 26.3642 11.3738C27.6688 12.6782 28.6147 14.3017 29.0985 16.0822L29.146 16.2572H27.7035L27.6735 16.1592C27.2326 14.724 26.4428 13.4178 25.3812 12.3564C23.6488 10.6246 21.3208 9.66051 18.8708 9.66051C16.4209 9.66051 14.0928 10.6246 12.3604 12.3564C11.0866 13.6299 10.212 15.2461 9.85086 17.0109L9.83403 17.0931H12.4735V19.2489C12.4735 19.4412 12.5507 19.6233 12.6865 19.7592C12.8224 19.8949 13.0046 19.9722 13.1969 19.9722C13.3892 19.9722 13.5714 19.8949 13.7073 19.7592C13.8431 19.6233 13.9204 19.4413 13.9204 19.2489V15.7785C13.9204 15.2169 14.1436 14.6826 14.5406 14.2856C14.9376 13.8886 15.4722 13.6655 16.0339 13.6655C16.5958 13.6655 17.1301 13.8886 17.5272 14.2856C17.9243 14.6826 18.1475 15.2169 18.1475 15.7785V21.9518C18.1475 22.1441 18.2248 22.3263 18.3606 22.4621C18.4964 22.5979 18.6787 22.675 18.871 22.675C19.0633 22.675 19.2455 22.5979 19.3813 22.4621C19.5171 22.3263 19.5944 22.1441 19.5944 21.9518V15.7785C19.5944 15.2169 19.8175 14.6826 20.2147 14.2856C20.6117 13.8886 21.1462 13.6655 21.708 13.6655C22.2699 13.6655 22.8043 13.8886 23.2013 14.2856C23.5984 14.6826 23.8216 15.2169 23.8216 15.7785V19.2489C23.8216 19.4412 23.8989 19.6233 24.0346 19.7592C24.1705 19.8949 24.3526 19.9722 24.5449 19.9722C24.7373 19.9722 24.9195 19.8949 25.0553 19.7592C25.1912 19.6233 25.2684 19.4413 25.2684 19.2489V17.0931H27.9076L27.9075 17.092H29.321L29.3395 17.2092C29.4253 17.7568 29.4684 18.3108 29.4684 18.8651C29.4684 21.684 28.3582 24.3632 26.3645 26.3565C24.3706 28.3497 21.6908 29.4595 18.8712 29.4595C16.0515 29.4595 13.3716 28.3497 11.3778 26.3565C9.53309 24.5123 8.43583 22.0685 8.29079 19.4637L8.28264 19.3172H9.6742L9.68235 19.4474C9.82229 21.688 10.7733 23.7868 12.3608 25.3738C14.0932 27.1058 16.4213 28.0698 18.8712 28.0698C21.3212 28.0698 23.6492 27.1058 25.3816 25.3738C27.114 23.6419 28.0782 21.3145 28.0782 18.8652C28.0782 18.7598 28.0765 18.6545 28.073 18.5492L28.0707 18.483H26.6599L26.6426 19.5091C26.5846 19.9763 26.3715 20.4088 26.0384 20.7419C25.6413 21.1388 25.1069 21.362 24.5451 21.362C23.9833 21.362 23.4488 21.1388 23.0518 20.7419C22.7188 20.4089 22.5057 19.9767 22.4476 19.5094Z" fill="url(#paint5_linear_6040_10457)"/>
</g>
</g>
</g>
<defs>
<filter id="filter0_d_6040_10457" x="0.000120135" y="0.000612206" width="37.7446" height="37.7466" filterUnits="userSpaceOnUse" color-interpolation-filters="sRGB">
<feFlood flood-opacity="0" result="BackgroundImageFix"/>
<feColorMatrix in="SourceAlpha" type="matrix" values="0 0 0 0 0 0 0 0 0 0 0 0 0 0 0 0 0 0 127 0" result="hardAlpha"/>
<feOffset/>
<feGaussianBlur stdDeviation="4.10712"/>
<feComposite in2="hardAlpha" operator="out"/>
<feColorMatrix type="matrix" values="0 0 0 0 1 0 0 0 0 0.411765 0 0 0 0 0 0 0 0 0.3 0"/>
<feBlend mode="normal" in2="BackgroundImageFix" result="effect1_dropShadow_6040_10457"/>
<feBlend mode="normal" in="SourceGraphic" in2="effect1_dropShadow_6040_10457" result="shape"/>
</filter>
<linearGradient id="paint0_linear_6040_10457" x1="81.9129" y1="23.0095" x2="85.4196" y2="11.2251" gradientUnits="userSpaceOnUse">
<stop stop-color="#E88C1F"/>
<stop offset="1" stop-color="#FFDC46"/>
</linearGradient>
<linearGradient id="paint1_linear_6040_10457" x1="89.0423" y1="23.0072" x2="91.8547" y2="11.0069" gradientUnits="userSpaceOnUse">
<stop stop-color="#E88C1F"/>
<stop offset="1" stop-color="#FFDC46"/>
</linearGradient>
<linearGradient id="paint2_linear_6040_10457" x1="96.6399" y1="23.0095" x2="99.9166" y2="11.2285" gradientUnits="userSpaceOnUse">
<stop stop-color="#E88C1F"/>
<stop offset="1" stop-color="#FFDC46"/>
</linearGradient>
<linearGradient id="paint3_linear_6040_10457" x1="8.27812" y1="8.27861" x2="29.4669" y2="29.4674" gradientUnits="userSpaceOnUse">
<stop stop-color="#FF6900"/>
<stop offset="0.5" stop-color="#FE9A00"/>
<stop offset="1" stop-color="#FDC700"/>
</linearGradient>
<linearGradient id="paint4_linear_6040_10457" x1="8.27812" y1="18.873" x2="29.4669" y2="18.873" gradientUnits="userSpaceOnUse">
<stop stop-color="#05121F"/>
<stop offset="1" stop-color="#05121F"/>
</linearGradient>
<linearGradient id="paint5_linear_6040_10457" x1="12.7467" y1="26.4015" x2="24.757" y2="11.7868" gradientUnits="userSpaceOnUse">
<stop stop-color="#E88C1F"/>
<stop offset="1" stop-color="#FFDC46"/>
</linearGradient>
<clipPath id="clip0_6040_10457">
<rect width="8.34247" height="8.30475" fill="white" transform="translate(33.604 14.6834) scale(1.00776)"/>
</clipPath>
<clipPath id="clip1_6040_10457">
<rect width="7.39143" height="8.30475" fill="white" transform="translate(46.1484 14.6834) scale(1.00776)"/>
</clipPath>
<clipPath id="clip2_6040_10457">
<rect width="6.33685" height="8.30475" fill="white" transform="translate(57.7342 14.6834) scale(1.00776)"/>
</clipPath>
<clipPath id="clip3_6040_10457">
<rect width="6.33685" height="8.30475" fill="white" transform="translate(68.2582 14.6834) scale(1.00776)"/>
</clipPath>
<clipPath id="clip4_6040_10457">
<rect width="22.9558" height="8.57784" fill="white" transform="translate(78.7811 14.5496) scale(1.00776)"/>
</clipPath>
<clipPath id="clip5_6040_10457">
<rect width="6.6005" height="8.27655" fill="white" transform="translate(78.7821 14.6086) scale(1.00776)"/>
</clipPath>
<clipPath id="clip6_6040_10457">
<rect width="8.87916" height="8.33301" fill="white" transform="translate(85.3768 14.5496) scale(1.00776)"/>
</clipPath>
<clipPath id="clip7_6040_10457">
<rect width="8.27655" height="8.27655" fill="white" transform="translate(93.5654 14.6086) scale(1.00776)"/>
</clipPath>
<clipPath id="clip8_6040_10457">
<path d="M8.93306 18.8623C8.93306 13.378 13.3884 8.93208 18.8727 8.93208C24.357 8.93208 28.8124 13.378 28.8124 18.8623C28.8124 24.3465 24.357 28.7924 18.8727 28.7924C13.3884 28.7924 8.93306 24.3465 8.93306 18.8623Z" fill="white"/>
</clipPath>
<clipPath id="clip9_6040_10457">
<rect width="21.0256" height="21.0256" fill="white" transform="translate(8.27861 8.27074) scale(1.00776)"/>
</clipPath>
</defs>
</svg>
