<svg width="81" height="38" viewBox="0 0 81 38" fill="none" xmlns="http://www.w3.org/2000/svg">
<g clip-path="url(#clip0_6040_10431)">
<g clip-path="url(#clip1_6040_10431)">
<path d="M22.4937 9.56846C22.4937 11.1542 22.1896 12.5517 21.5809 13.7612C20.9727 14.9706 20.143 15.9785 19.0922 16.7848C18.0413 17.5911 16.8107 18.2092 15.4004 18.6392C13.99 19.0424 12.4829 19.2439 10.8789 19.2439H5.11302V28.3146H0.0108363V0.0945709H11.4596C13.1465 0.0945709 14.6675 0.32302 16.0226 0.779917C17.4053 1.20994 18.5668 1.84153 19.507 2.67471C20.4748 3.50786 21.2076 4.50227 21.7055 5.65795C22.231 6.81364 22.4937 8.11716 22.4937 9.56846ZM17.3085 9.68941C17.3085 7.99621 16.7416 6.73303 15.6078 5.89984C14.4739 5.03981 12.953 4.60978 11.0448 4.60978H5.11302V14.769H11.0448C12.9806 14.769 14.5016 14.3122 15.6078 13.3984C16.7416 12.4577 17.3085 11.2214 17.3085 9.68941Z" fill="url(#paint0_linear_6040_10431)"/>
</g>
<g clip-path="url(#clip2_6040_10431)">
<path d="M40.0067 0L52.7786 28.4126H47.3879L44.4437 21.6015H30.718L27.7322 28.4126H22.5074L35.2794 0H40.0067ZM42.5778 17.2087L37.5602 5.92431L32.5841 17.2087H42.5778Z" fill="url(#paint1_linear_6040_10431)"/>
</g>
<g clip-path="url(#clip3_6040_10431)">
<path d="M69.4619 17.067V28.3146H64.3181V17.1879L52.7863 0.0945709H58.8011L66.9315 12.5921L75.1447 0.0945709H80.9937L69.4619 17.067Z" fill="url(#paint2_linear_6040_10431)"/>
</g>
</g>
<defs>
<linearGradient id="paint0_linear_6040_10431" x1="10.5903" y1="28.5178" x2="22.4547" y2="-11.3531" gradientUnits="userSpaceOnUse">
<stop stop-color="#E88C1F"/>
<stop offset="1" stop-color="#FFDC46"/>
</linearGradient>
<linearGradient id="paint1_linear_6040_10431" x1="34.909" y1="28.6153" x2="44.4244" y2="-11.9861" gradientUnits="userSpaceOnUse">
<stop stop-color="#E88C1F"/>
<stop offset="1" stop-color="#FFDC46"/>
</linearGradient>
<linearGradient id="paint2_linear_6040_10431" x1="63.1804" y1="28.5178" x2="74.2665" y2="-11.3416" gradientUnits="userSpaceOnUse">
<stop stop-color="#E88C1F"/>
<stop offset="1" stop-color="#FFDC46"/>
</linearGradient>
<clipPath id="clip0_6040_10431">
<rect width="80.297" height="37.1457" fill="white" transform="scale(1.00876)"/>
</clipPath>
<clipPath id="clip1_6040_10431">
<rect width="22.31" height="27.9751" fill="white" transform="translate(0 0.0945709) scale(1.00876)"/>
</clipPath>
<clipPath id="clip2_6040_10431">
<rect width="30.012" height="28.166" fill="white" transform="translate(22.5054) scale(1.00876)"/>
</clipPath>
<clipPath id="clip3_6040_10431">
<rect width="27.9751" height="27.9751" fill="white" transform="translate(52.7799 0.0945709) scale(1.00876)"/>
</clipPath>
</defs>
</svg>
