<svg width="61" height="17" viewBox="0 0 61 17" fill="none" xmlns="http://www.w3.org/2000/svg">
<g clip-path="url(#clip0_6040_12585)">
<path d="M12.6606 9.01133C12.6606 7.3668 13.9685 6 15.6522 6C17.3359 6 18.6438 7.3668 18.6438 9.01133C18.6438 10.6559 17.3277 12.0146 15.6522 12.0146C13.9767 12.0146 12.6606 10.6567 12.6606 9.01133ZM17.6009 9.01133C17.6009 7.89797 16.7714 6.96194 15.6432 6.96194C14.515 6.96194 13.7117 7.89797 13.7117 9.01133C13.7117 10.1247 14.524 11.0526 15.6432 11.0526C16.7624 11.0526 17.6009 10.1247 17.6009 9.01133Z" fill="white"/>
<path d="M19.397 9.01133C19.397 7.3668 20.7303 6 22.3886 6C23.3543 6 24.2002 6.44696 24.7303 7.13036L23.9442 7.72064C23.5857 7.25668 23.0556 6.96113 22.414 6.96113C21.294 6.96113 20.448 7.89716 20.448 9.01052C20.448 10.1239 21.2776 11.0518 22.414 11.0518C23.0548 11.0518 23.5849 10.7563 23.9442 10.2923L24.7303 10.8826C24.2002 11.566 23.3543 12.0129 22.3886 12.0129C20.7303 12.0129 19.397 10.655 19.397 9.00971V9.01133Z" fill="white"/>
<path d="M30.176 11.9137H28.8172L26.7487 9.51775V11.9137H25.7148V6.10156H26.7487V8.55661L28.5185 6.10156H29.7665L27.6471 8.99467L30.1776 11.9129L30.176 11.9137Z" fill="white"/>
<path d="M36.5948 6.10237H37.7148L35.7234 11.9145H34.8775L33.9454 8.59953L33.0305 11.9145H32.1756L30.1924 6.10237H31.3124L32.6112 10.1679L33.5343 6.90318H34.3639L35.2869 10.1841L36.5948 6.10156V6.10237ZM41.929 11.9145L41.4161 10.4886H39.0998L38.5952 11.9145H37.4843L39.698 6.10237H40.8262L43.0317 11.9145H41.929ZM39.4157 9.59467H41.0994L40.2617 7.23273L39.4157 9.59467ZM44.8007 10.9947H47.0916V11.9145H43.7579V6.10237H44.8007V10.9947ZM49.0666 10.9947H51.3574V11.9145H48.0237V6.10237H49.0666V10.9947ZM53.3234 10.9947H55.99V11.9145H52.2887V6.10237H55.9047V7.02221H53.3234V8.59143H55.5798V9.52746H53.3234V10.9955V10.9947ZM60.9993 6.10237V7.02221H59.3156V11.9145H58.2727V7.02221H56.589V6.10237H60.9993Z" fill="#6EAEA1"/>
<path d="M6.64988 7.51142C6.61132 7.53572 4.97112 8.57701 3.08559 10.6847C2.94036 10.8474 2.79103 11.0191 2.63841 11.1997C2.52928 11.3292 2.33236 11.3438 2.20518 11.2304C2.08539 11.1236 2.07226 10.9422 2.17564 10.8199C2.33236 10.6345 2.48498 10.458 2.63431 10.2912C4.60764 8.0847 6.30773 7.02155 6.32989 7.00778C6.7426 6.75434 6.88127 6.22884 6.6466 5.80941C6.63922 5.79645 6.63183 5.7835 6.62363 5.77135C6.3586 5.34949 5.79655 5.21912 5.36907 5.47985C5.33707 5.49929 5.00804 5.70252 4.47964 6.10414C4.34671 6.20536 4.15471 6.17864 4.05461 6.04503C3.95697 5.91548 3.98323 5.73248 4.11287 5.6337C4.66917 5.21103 5.01789 4.99483 5.05153 4.97459C5.76127 4.54058 6.69583 4.75759 7.13563 5.45799C7.14876 5.47904 7.16106 5.5001 7.17337 5.52196C7.56311 6.2175 7.33337 7.09037 6.6507 7.51142H6.64988ZM2.98713 14.1851C3.12333 14.2839 3.31451 14.2523 3.41215 14.1155C3.48928 14.0069 3.56641 13.9017 3.64272 13.798V12.8126C3.40559 13.1106 3.16272 13.4312 2.91903 13.7754C2.82467 13.9074 2.85585 14.0903 2.98795 14.1859L2.98713 14.1851ZM8.47224 6.94462C8.51737 6.77863 8.4107 6.61021 8.24003 6.57701C8.08578 6.54706 7.93316 6.63855 7.89214 6.78835C7.75757 7.27985 7.4425 7.72357 6.97317 8.01426C6.93214 8.04017 6.08784 8.5843 4.93994 9.64988C4.81769 9.76405 4.81358 9.95514 4.93092 10.0734H4.93174C4.97358 10.1163 5.02527 10.143 5.07943 10.1559C5.13276 10.1551 5.18117 10.1535 5.22384 10.1527C5.27061 10.1406 5.31574 10.1179 5.35348 10.0831C6.4423 9.07336 7.24886 8.54624 7.29727 8.51547C7.89624 8.143 8.29993 7.57458 8.47224 6.94544V6.94462ZM7.75265 9.29199C7.65665 9.15352 7.46383 9.12114 7.32681 9.22073C6.98876 9.46526 6.39389 9.92518 5.6784 10.5972L6.01563 11.1009C6.74424 10.4094 7.3506 9.94057 7.68209 9.70008C7.81337 9.60534 7.84455 9.42478 7.75265 9.29199ZM10.3356 3.79646C10.2954 3.72439 10.2519 3.65152 10.2076 3.58107C9.69972 2.77217 8.99654 2.15355 8.1949 1.74788C8.03655 1.66772 7.84373 1.73897 7.77727 1.90173C7.71983 2.04343 7.78055 2.20537 7.91757 2.27501C8.62485 2.6329 9.24598 3.17865 9.6948 3.89362C9.73418 3.95597 9.77192 4.01994 9.80721 4.08391C10.4078 5.15597 10.5137 6.37459 10.1937 7.47499C10.1502 7.62478 10.2322 7.78106 10.3807 7.8345C10.5448 7.89361 10.7245 7.80211 10.7729 7.63612C11.134 6.38916 11.0142 5.00941 10.334 3.79646H10.3356ZM8.22034 8.92033C8.33521 9.05555 8.54362 9.06203 8.66752 8.9349C9.65705 7.92519 10.0181 6.44908 9.59634 5.10172C9.54464 4.93653 9.36331 4.84909 9.20003 4.91062C9.05152 4.9673 8.97439 5.12763 9.02116 5.27742C9.37808 6.41831 9.07285 7.66689 8.23511 8.52195C8.12762 8.63207 8.12106 8.80373 8.22034 8.92033ZM10.1756 8.37134C10.0312 8.28875 9.84741 8.33733 9.76372 8.47984C9.4109 9.08389 8.91121 9.61344 8.2786 10.011C8.21378 10.0539 7.26609 10.7843 6.3504 11.6013L6.68681 12.1033C7.58116 11.2993 8.54198 10.5527 8.60844 10.509C9.32311 10.058 9.88762 9.45798 10.2856 8.77458C10.3676 8.63369 10.3176 8.45312 10.1748 8.37134H10.1756Z" fill="#6EAEA1"/>
<path d="M0.680677 0.015625H0.221191V0.353276C0.386934 0.22858 0.54119 0.11522 0.680677 0.015625Z" fill="white"/>
<path d="M0.221524 1.1055V1.86744C1.35957 0.946796 2.13906 0.465016 2.19813 0.429389C2.45413 0.273114 2.71669 0.135463 2.98336 0.015625H1.73619C1.49003 0.174329 0.947675 0.5387 0.220703 1.1055H0.221524Z" fill="white"/>
<path d="M3.56313 0.750343C3.49913 0.59083 3.31205 0.517955 3.15451 0.59083C2.93708 0.692044 2.72375 0.806214 2.51452 0.934148C2.45134 0.973015 1.52908 1.54224 0.221191 2.6386V3.42402C1.69483 2.14143 2.76477 1.48071 2.83205 1.43941C3.02159 1.32362 3.21523 1.21998 3.41133 1.12929C3.55492 1.06208 3.62221 0.896902 3.56395 0.751153L3.56313 0.750343Z" fill="white"/>
<path d="M0.386114 4.07307C0.33196 4.12166 0.276166 4.17186 0.221191 4.22206V5.03501C0.415652 4.85121 0.606011 4.67712 0.789805 4.51275C0.909599 4.40587 0.921907 4.2253 0.819343 4.10303C0.710215 3.97348 0.513293 3.95972 0.386114 4.07227V4.07307Z" fill="white"/>
<path d="M6.7533 1.26814C5.55043 1.05438 4.26715 1.26086 3.1488 1.94425C3.093 1.97826 2.32747 2.45113 1.21157 3.36773C1.08439 3.47218 1.06634 3.65842 1.17137 3.78473C1.27721 3.91186 1.46757 3.92967 1.59557 3.82441C2.67536 2.93777 3.41218 2.48271 3.46633 2.44951C4.45341 1.84628 5.58571 1.66409 6.64663 1.85276C6.81155 1.88191 6.96909 1.77421 6.99781 1.61146C7.02571 1.44952 6.91658 1.29729 6.75412 1.26814H6.7533Z" fill="white"/>
<path d="M3.78324 2.95425C3.71596 2.99554 2.53852 3.72267 0.959042 5.16477C0.836786 5.27651 0.829402 5.46436 0.942632 5.58501C1.05586 5.70485 1.2454 5.71213 1.36766 5.6012C2.90037 4.2004 4.03513 3.49919 4.10078 3.45951C5.35533 2.69271 6.93154 2.85304 8.00066 3.74939C8.12292 3.85141 8.30507 3.83927 8.4142 3.72348C8.53071 3.59959 8.51922 3.40445 8.38876 3.29514C7.126 2.23765 5.26508 2.04818 3.78324 2.95425Z" fill="white"/>
<path d="M0.281089 6.23675C0.263037 6.21813 0.242525 6.20355 0.221191 6.19141V6.7161C0.241704 6.69505 0.263037 6.67238 0.28273 6.65132C0.39596 6.53553 0.39514 6.35173 0.281089 6.23675Z" fill="white"/>
<path d="M3.89133 4.29801C3.11267 4.8802 1.58324 6.12878 0.221191 7.58869V8.48423C0.269601 8.42917 0.316371 8.37249 0.364781 8.31824C1.77113 6.74578 3.44415 5.37655 4.254 4.7717C4.382 4.67615 4.41154 4.49801 4.32046 4.36765C4.22364 4.22757 4.02754 4.19599 3.89133 4.29882V4.29801Z" fill="white"/>
<path d="M2.96005 6.57986C2.32498 7.13776 1.5898 7.84464 0.816882 8.7086C0.614216 8.93532 0.416473 9.16609 0.221191 9.4001V10.3507C0.558421 9.92317 0.907138 9.50617 1.26816 9.10212C2.02549 8.25516 2.74262 7.56528 3.35964 7.02278C3.48108 6.9167 3.49503 6.73452 3.39164 6.61144C3.28251 6.48189 3.08723 6.46731 2.96005 6.57905V6.57986Z" fill="white"/>
<path d="M2.25688 9.3776C2.13052 9.25858 1.92949 9.26586 1.81298 9.39461C1.7818 9.42943 1.75062 9.46343 1.71944 9.49906C1.19268 10.0877 0.693805 10.7047 0.221191 11.3444V12.4059C0.899753 11.4173 1.57421 10.5833 2.18303 9.9023C2.21339 9.86829 2.24375 9.83428 2.27411 9.80108C2.38488 9.67882 2.37831 9.49096 2.2577 9.3776H2.25688Z" fill="white"/>
<path d="M1.68908 11.9184C1.55534 11.8155 1.3617 11.8414 1.2616 11.9767C0.917804 12.4398 0.568267 12.9459 0.221191 13.4925V14.0908C0.359858 14.1637 0.534626 14.12 0.618318 13.9856C0.994112 13.3831 1.37401 12.8317 1.74652 12.3297C1.84334 12.2001 1.8179 12.018 1.68908 11.9192V11.9184Z" fill="white"/>
<path d="M3.50732 16.1109C3.55244 16.0356 3.59675 15.9595 3.64188 15.8858V14.7773C3.36373 15.1903 3.08475 15.6348 2.81152 16.1109H3.5065H3.50732Z" fill="white"/>
<path d="M2.49804 14.9324C2.35609 14.849 2.1723 14.8944 2.08697 15.0336C1.87692 15.3753 1.66851 15.7356 1.46338 16.1122H2.15097C2.3003 15.8474 2.45045 15.5883 2.60225 15.3421C2.68922 15.2012 2.64245 15.0166 2.49886 14.9324H2.49804Z" fill="white"/>
<path d="M8.89148 11.381C8.78974 11.2417 8.58953 11.2166 8.45497 11.3259C8.05374 11.653 7.56144 12.0879 7.03467 12.6239L7.37518 13.1316C7.91918 12.5696 8.42954 12.1186 8.83979 11.7842C8.96205 11.6846 8.98502 11.5081 8.8923 11.381H8.89148Z" fill="white"/>
<path d="M8.19424 14.3546C9.06645 13.2809 9.95998 12.4194 10.7788 11.7384L10.4646 11.2227C9.63752 11.9028 8.73414 12.766 7.84717 13.8356L8.19506 14.3546H8.19424Z" fill="white"/>
<path d="M11.157 12.3555C11.0183 12.4842 10.8764 12.6105 10.7278 12.7304C10.6015 12.8324 10.5818 13.0154 10.6819 13.1425C10.7861 13.2745 10.9789 13.2955 11.1102 13.1895C11.2349 13.0891 11.3564 12.9838 11.4745 12.8761L11.157 12.3555Z" fill="white"/>
<path d="M12.0727 13.8563L11.7601 13.3438C10.9552 13.9583 10.0543 14.7648 9.1665 15.8012L9.37327 16.1097H9.69163C10.5072 15.1697 11.331 14.428 12.0727 13.8563Z" fill="white"/>
<path d="M10.2743 13.3703C10.1726 13.2343 9.97649 13.21 9.84275 13.316C9.48993 13.5978 8.96563 14.0496 8.39209 14.6505L8.73342 15.1598C9.32337 14.5306 9.86737 14.0618 10.2226 13.7784C10.3482 13.678 10.3703 13.4982 10.2743 13.3703Z" fill="white"/>
<path d="M11.4642 15.8534C11.5856 15.749 11.602 15.5692 11.5019 15.4445C11.3953 15.3117 11.1984 15.2939 11.0687 15.4049C10.8513 15.5911 10.5887 15.83 10.3081 16.1125H11.1721C11.2763 16.0178 11.3748 15.9304 11.4642 15.8542V15.8534Z" fill="white"/>
<path d="M12.4093 14.4102C12.2542 14.5284 12.0958 14.6434 11.9334 14.7527C11.7996 14.8434 11.761 15.0215 11.8472 15.1567C11.9375 15.2992 12.1303 15.3397 12.2714 15.245C12.4248 15.1413 12.5742 15.0328 12.7219 14.9227L12.4093 14.4102Z" fill="white"/>
<path d="M13.3411 15.9375L13.0285 15.4258C12.807 15.595 12.5797 15.7578 12.345 15.9116C12.3401 15.9148 12.3352 15.9181 12.3311 15.9213C12.2901 15.9513 12.2047 16.0169 12.0874 16.1116H13.1073C13.1861 16.0549 13.2632 15.9958 13.3403 15.9375H13.3411Z" fill="white"/>
<path d="M8.22802 4.95016C8.20669 4.9121 8.18372 4.87324 8.15992 4.83599C7.45428 3.71292 6.03972 3.28215 4.83768 3.75745C4.67275 3.82304 4.59891 4.01332 4.68014 4.1696C4.75152 4.30725 4.91727 4.36636 5.06332 4.30887C5.9987 3.93964 7.099 4.27486 7.64792 5.14854C7.66597 5.17769 7.68403 5.20765 7.70044 5.23761C7.77674 5.37445 7.83664 5.51615 7.87931 5.66109C7.92033 5.80036 8.05654 5.89024 8.20259 5.87404C8.38802 5.8538 8.5111 5.67324 8.45859 5.49672C8.40361 5.31048 8.32649 5.12668 8.22802 4.95016Z" fill="white"/>
<path d="M5.6862 5.98696C5.62795 6.02259 4.53667 6.69708 3.05729 8.11246C2.93667 8.22744 2.93093 8.4161 3.04416 8.53837C3.16149 8.66469 3.36252 8.67116 3.48724 8.55133C4.92969 7.174 5.998 6.51409 6.01113 6.50518C6.15636 6.41692 6.20066 6.22907 6.11123 6.08575C6.02097 5.94243 5.83061 5.8987 5.6862 5.98696Z" fill="white"/>
<path d="M4.88107 0.370034C4.85892 0.204852 4.97789 0.0534357 5.14528 0.035622C7.49276 -0.21296 9.89193 0.847765 11.2162 2.95788C11.2712 3.04533 11.3237 3.1344 11.3738 3.22346C11.7594 3.91172 11.999 4.6437 12.1016 5.38378C12.1254 5.55463 11.9949 5.70848 11.8209 5.719C11.6634 5.72791 11.5264 5.61617 11.5051 5.46232C11.4115 4.79431 11.1949 4.13358 10.8462 3.51172C10.8011 3.43075 10.7526 3.34978 10.7034 3.27124C9.50547 1.36112 7.33522 0.400803 5.21092 0.626713C5.04928 0.643717 4.90323 0.529547 4.88189 0.370034H4.88107Z" fill="white"/>
<path d="M11.903 6.93459H11.9047C12.0696 6.96212 12.1812 7.11759 12.1508 7.27953C11.871 8.77345 11.0456 10.1613 9.75658 11.1257C9.62119 11.2269 9.42755 11.1969 9.32991 11.0593L9.32827 11.0577C9.23555 10.9273 9.26427 10.7475 9.39309 10.6512C10.559 9.7783 11.3049 8.52406 11.5584 7.17346C11.5888 7.01394 11.7414 6.90706 11.903 6.93378V6.93459Z" fill="white"/>
<path d="M0.683329 16.1125C1.99286 13.7408 3.48865 11.9821 4.69726 10.791L4.6989 10.7894C4.80967 10.6801 4.81213 10.5036 4.70301 10.3927L4.68249 10.3716C4.57173 10.2583 4.38793 10.2558 4.2747 10.3676L4.27142 10.3708C2.98322 11.6404 1.37748 13.5368 -0.000976562 16.1133H0.683329V16.1125Z" fill="white"/>
</g>
<defs>
<clipPath id="clip0_6040_12585">
<rect width="61" height="16.1133" fill="white"/>
</clipPath>
</defs>
</svg>
