<svg width="255" height="20" viewBox="0 0 255 20" fill="none" xmlns="http://www.w3.org/2000/svg">
<g filter="url(#filter0_dd_6040_10478)">
<rect x="1.9561" y="1.95707" width="15.0003" height="15.0003" rx="3.5034" fill="#E79D35"/>
<path d="M7.30375 7.21734C8.025 5.9681 8.38562 5.34349 8.86157 5.14341C9.24179 4.98359 9.67035 4.98359 10.0506 5.14341C10.5265 5.34349 10.8871 5.9681 11.6084 7.21734L13.3562 10.2447C14.0775 11.4939 14.4381 12.1185 14.3734 12.6307C14.3217 13.0399 14.1074 13.4111 13.7789 13.6604C13.3676 13.9726 12.6464 13.9726 11.2039 13.9726H7.70824C6.26574 13.9726 5.54449 13.9726 5.13325 13.6604C4.80473 13.4111 4.59045 13.0399 4.53876 12.6307C4.47405 12.1185 4.83467 11.4939 5.55592 10.2447L7.30375 7.21734Z" fill="white"/>
<rect x="8.96259" y="7.42984" width="0.984546" height="3.62876" rx="0.306846" fill="#E79D35"/>
<rect x="8.96259" y="11.7581" width="0.984546" height="0.984546" rx="0.306846" fill="#E79D35"/>
</g>
<path d="M29.1243 7.19829C29.0793 6.81836 28.8968 6.52341 28.5768 6.31345C28.2569 6.10348 27.8645 5.9985 27.3995 5.9985C27.0596 5.9985 26.7622 6.05349 26.5072 6.16347C26.2547 6.27345 26.0573 6.42468 25.9148 6.61714C25.7748 6.80961 25.7048 7.02832 25.7048 7.27328C25.7048 7.47825 25.7536 7.65447 25.8511 7.80194C25.951 7.94692 26.0785 8.06814 26.2335 8.16563C26.3885 8.26061 26.5509 8.33935 26.7209 8.40184C26.8909 8.46183 27.0471 8.51057 27.1896 8.54806L27.9695 8.75803C28.1694 8.81052 28.3919 8.883 28.6368 8.97549C28.8843 9.06797 29.1205 9.1942 29.3455 9.35417C29.5729 9.51165 29.7604 9.71411 29.9079 9.96157C30.0553 10.209 30.1291 10.5127 30.1291 10.8727C30.1291 11.2876 30.0203 11.6625 29.8029 11.9975C29.5879 12.3324 29.273 12.5986 28.858 12.7961C28.4456 12.9935 27.9445 13.0923 27.3546 13.0923C26.8047 13.0923 26.3285 13.0035 25.9261 12.8261C25.5261 12.6486 25.2112 12.4011 24.9812 12.0837C24.7538 11.7663 24.625 11.3976 24.595 10.9776H25.5549C25.5799 11.2676 25.6773 11.5076 25.8473 11.6975C26.0198 11.885 26.2372 12.025 26.4997 12.1174C26.7647 12.2074 27.0496 12.2524 27.3546 12.2524C27.7095 12.2524 28.0282 12.1949 28.3106 12.08C28.5931 11.9625 28.8168 11.8 28.9818 11.5925C29.1467 11.3826 29.2292 11.1376 29.2292 10.8577C29.2292 10.6027 29.158 10.3952 29.0155 10.2353C28.873 10.0753 28.6856 9.94532 28.4531 9.84534C28.2207 9.74536 27.9695 9.65787 27.6995 9.58288L26.7547 9.31293C26.1548 9.14046 25.6798 8.89425 25.3299 8.57431C24.98 8.25436 24.805 7.83568 24.805 7.31827C24.805 6.88835 24.9212 6.51341 25.1537 6.19347C25.3886 5.87102 25.7036 5.62107 26.0985 5.4436C26.496 5.26363 26.9396 5.17364 27.4295 5.17364C27.9245 5.17364 28.3644 5.26238 28.7493 5.43985C29.1343 5.61482 29.4392 5.85478 29.6642 6.15972C29.8916 6.46467 30.0116 6.81086 30.0241 7.19829H29.1243ZM33.9525 13.0773C33.3976 13.0773 32.9189 12.9548 32.5165 12.7098C32.1165 12.4624 31.8079 12.1174 31.5904 11.675C31.3754 11.2301 31.2679 10.7127 31.2679 10.1228C31.2679 9.53289 31.3754 9.01298 31.5904 8.56306C31.8079 8.11064 32.1103 7.7582 32.4977 7.50574C32.8877 7.25079 33.3426 7.12331 33.8625 7.12331C34.1624 7.12331 34.4586 7.1733 34.7511 7.27328C35.0435 7.37326 35.3098 7.53574 35.5497 7.7607C35.7897 7.98316 35.9809 8.27811 36.1234 8.64555C36.2658 9.01298 36.3371 9.4654 36.3371 10.0028V10.3777H31.8978V9.61288H35.4372C35.4372 9.28794 35.3722 8.99799 35.2423 8.74303C35.1148 8.48807 34.9323 8.28686 34.6949 8.13938C34.4599 7.99191 34.1824 7.91817 33.8625 7.91817C33.5101 7.91817 33.2051 8.00566 32.9477 8.18063C32.6927 8.3531 32.4965 8.57806 32.359 8.85551C32.2215 9.13296 32.1528 9.43041 32.1528 9.74786V10.2578C32.1528 10.6927 32.2278 11.0614 32.3778 11.3638C32.5302 11.6638 32.7414 11.8925 33.0114 12.05C33.2813 12.2049 33.595 12.2824 33.9525 12.2824C34.1849 12.2824 34.3949 12.2499 34.5824 12.1849C34.7723 12.1174 34.9361 12.0175 35.0735 11.885C35.211 11.75 35.3172 11.5825 35.3922 11.3826L36.2471 11.6225C36.1571 11.9125 36.0059 12.1674 35.7934 12.3874C35.581 12.6049 35.3185 12.7748 35.0061 12.8973C34.6936 13.0173 34.3424 13.0773 33.9525 13.0773ZM38.5679 9.4929V12.9573H37.6831V7.19829H38.5379V8.09814H38.6129C38.7479 7.80569 38.9529 7.57073 39.2278 7.39326C39.5028 7.21329 39.8577 7.12331 40.2926 7.12331C40.6826 7.12331 41.0238 7.20329 41.3162 7.36327C41.6087 7.52074 41.8361 7.7607 41.9986 8.08314C42.1611 8.40309 42.2423 8.80802 42.2423 9.29793V12.9573H41.3575V9.35792C41.3575 8.9055 41.24 8.55306 41.005 8.3006C40.7701 8.04565 40.4476 7.91817 40.0377 7.91817C39.7552 7.91817 39.5028 7.97941 39.2803 8.10189C39.0604 8.22437 38.8866 8.40309 38.7592 8.63805C38.6317 8.87301 38.5679 9.15796 38.5679 9.4929ZM46.0338 13.0773C45.5539 13.0773 45.1302 12.9561 44.7628 12.7136C44.3954 12.4686 44.1079 12.1237 43.9005 11.6788C43.693 11.2314 43.5893 10.7027 43.5893 10.0928C43.5893 9.4879 43.693 8.96299 43.9005 8.51807C44.1079 8.07314 44.3966 7.72945 44.7666 7.48699C45.1365 7.24454 45.5639 7.12331 46.0488 7.12331C46.4238 7.12331 46.72 7.1858 46.9374 7.31078C47.1574 7.43325 47.3249 7.57323 47.4399 7.7307C47.5573 7.88568 47.6486 8.01315 47.7136 8.11314H47.7885V5.27862H48.6734V12.9573H47.8185V12.0725H47.7136C47.6486 12.1774 47.5561 12.3099 47.4361 12.4699C47.3161 12.6274 47.1449 12.7686 46.9224 12.8936C46.7 13.016 46.4038 13.0773 46.0338 13.0773ZM46.1538 12.2824C46.5088 12.2824 46.8087 12.1899 47.0537 12.005C47.2986 11.8175 47.4848 11.5588 47.6123 11.2289C47.7398 10.8964 47.8035 10.5127 47.8035 10.0778C47.8035 9.64787 47.7411 9.27169 47.6161 8.94924C47.4911 8.6243 47.3061 8.37184 47.0612 8.19187C46.8162 8.00941 46.5138 7.91817 46.1538 7.91817C45.7789 7.91817 45.4664 8.0144 45.2165 8.20687C44.969 8.39684 44.7828 8.65554 44.6578 8.98299C44.5354 9.30793 44.4741 9.67287 44.4741 10.0778C44.4741 10.4877 44.5366 10.8602 44.6616 11.1951C44.7891 11.5276 44.9765 11.7925 45.224 11.99C45.4739 12.1849 45.7839 12.2824 46.1538 12.2824ZM55.7259 13.0773C55.206 13.0773 54.7498 12.9536 54.3574 12.7061C53.9675 12.4586 53.6625 12.1124 53.4426 11.6675C53.2251 11.2226 53.1164 10.7027 53.1164 10.1078C53.1164 9.5079 53.2251 8.98424 53.4426 8.53681C53.6625 8.08939 53.9675 7.74195 54.3574 7.49449C54.7498 7.24704 55.206 7.12331 55.7259 7.12331C56.2458 7.12331 56.7008 7.24704 57.0907 7.49449C57.4831 7.74195 57.7881 8.08939 58.0055 8.53681C58.2255 8.98424 58.3355 9.5079 58.3355 10.1078C58.3355 10.7027 58.2255 11.2226 58.0055 11.6675C57.7881 12.1124 57.4831 12.4586 57.0907 12.7061C56.7008 12.9536 56.2458 13.0773 55.7259 13.0773ZM55.7259 12.2824C56.1209 12.2824 56.4458 12.1812 56.7008 11.9787C56.9557 11.7763 57.1444 11.5101 57.2669 11.1801C57.3894 10.8502 57.4506 10.4927 57.4506 10.1078C57.4506 9.72286 57.3894 9.36417 57.2669 9.03173C57.1444 8.69929 56.9557 8.43058 56.7008 8.22562C56.4458 8.02065 56.1209 7.91817 55.7259 7.91817C55.331 7.91817 55.006 8.02065 54.7511 8.22562C54.4961 8.43058 54.3074 8.69929 54.1849 9.03173C54.0625 9.36417 54.0012 9.72286 54.0012 10.1078C54.0012 10.4927 54.0625 10.8502 54.1849 11.1801C54.3074 11.5101 54.4961 11.7763 54.7511 11.9787C55.006 12.1812 55.331 12.2824 55.7259 12.2824ZM60.571 9.4929V12.9573H59.6862V7.19829H60.541V8.09814H60.616C60.751 7.80569 60.956 7.57073 61.2309 7.39326C61.5059 7.21329 61.8608 7.12331 62.2957 7.12331C62.6857 7.12331 63.0269 7.20329 63.3193 7.36327C63.6118 7.52074 63.8392 7.7607 64.0017 8.08314C64.1642 8.40309 64.2454 8.80802 64.2454 9.29793V12.9573H63.3605V9.35792C63.3605 8.9055 63.2431 8.55306 63.0081 8.3006C62.7732 8.04565 62.4507 7.91817 62.0408 7.91817C61.7583 7.91817 61.5059 7.97941 61.2834 8.10189C61.0634 8.22437 60.8897 8.40309 60.7622 8.63805C60.6348 8.87301 60.571 9.15796 60.571 9.4929ZM66.7472 5.27862V12.9573H65.8623V5.27862H66.7472ZM68.9377 15.1169C68.7877 15.1169 68.654 15.1044 68.5365 15.0794C68.4191 15.0569 68.3378 15.0344 68.2928 15.012L68.5178 14.2321C68.7328 14.2871 68.9227 14.3071 69.0877 14.2921C69.2527 14.2771 69.3989 14.2033 69.5264 14.0709C69.6563 13.9409 69.7751 13.7297 69.8826 13.4372L70.0475 12.9873L67.9179 7.19829H68.8777L70.4675 11.7875H70.5274L72.1172 7.19829H73.077L70.6324 13.7972C70.5224 14.0946 70.3862 14.3408 70.2237 14.5358C70.0613 14.7332 69.8726 14.8795 69.6576 14.9745C69.4451 15.0694 69.2052 15.1169 68.9377 15.1169ZM82.3735 5.27862H83.3034V10.3628C83.3034 10.8877 83.1796 11.3563 82.9322 11.7688C82.6872 12.1787 82.341 12.5024 81.8936 12.7398C81.4462 12.9748 80.9213 13.0923 80.3189 13.0923C79.7165 13.0923 79.1916 12.9748 78.7442 12.7398C78.2967 12.5024 77.9493 12.1787 77.7018 11.7688C77.4569 11.3563 77.3344 10.8877 77.3344 10.3628V5.27862H78.2642V10.2878C78.2642 10.6627 78.3467 10.9964 78.5117 11.2888C78.6767 11.5788 78.9116 11.8075 79.2166 11.975C79.524 12.1399 79.8915 12.2224 80.3189 12.2224C80.7463 12.2224 81.1137 12.1399 81.4212 11.975C81.7286 11.8075 81.9636 11.5788 82.1261 11.2888C82.291 10.9964 82.3735 10.6627 82.3735 10.2878V5.27862ZM89.3595 7.19829C89.3145 6.81836 89.1321 6.52341 88.8121 6.31345C88.4922 6.10348 88.0997 5.9985 87.6348 5.9985C87.2949 5.9985 86.9974 6.05349 86.7425 6.16347C86.49 6.27345 86.2925 6.42468 86.1501 6.61714C86.0101 6.80961 85.9401 7.02832 85.9401 7.27328C85.9401 7.47825 85.9888 7.65447 86.0863 7.80194C86.1863 7.94692 86.3138 8.06814 86.4688 8.16563C86.6237 8.26061 86.7862 8.33935 86.9562 8.40184C87.1261 8.46183 87.2824 8.51057 87.4248 8.54806L88.2047 8.75803C88.4047 8.81052 88.6271 8.883 88.8721 8.97549C89.1196 9.06797 89.3558 9.1942 89.5807 9.35417C89.8082 9.51165 89.9957 9.71411 90.1431 9.96157C90.2906 10.209 90.3643 10.5127 90.3643 10.8727C90.3643 11.2876 90.2556 11.6625 90.0381 11.9975C89.8232 12.3324 89.5082 12.5986 89.0933 12.7961C88.6809 12.9935 88.1797 13.0923 87.5898 13.0923C87.0399 13.0923 86.5637 13.0035 86.1613 12.8261C85.7614 12.6486 85.4464 12.4011 85.2165 12.0837C84.989 11.7663 84.8603 11.3976 84.8303 10.9776H85.7901C85.8151 11.2676 85.9126 11.5076 86.0826 11.6975C86.255 11.885 86.4725 12.025 86.735 12.1174C86.9999 12.2074 87.2849 12.2524 87.5898 12.2524C87.9448 12.2524 88.2635 12.1949 88.5459 12.08C88.8284 11.9625 89.0521 11.8 89.217 11.5925C89.382 11.3826 89.4645 11.1376 89.4645 10.8577C89.4645 10.6027 89.3933 10.3952 89.2508 10.2353C89.1083 10.0753 88.9208 9.94532 88.6884 9.84534C88.4559 9.74536 88.2047 9.65787 87.9348 9.58288L86.9899 9.31293C86.39 9.14046 85.9151 8.89425 85.5652 8.57431C85.2152 8.25436 85.0403 7.83568 85.0403 7.31827C85.0403 6.88835 85.1565 6.51341 85.3889 6.19347C85.6239 5.87102 85.9389 5.62107 86.3338 5.4436C86.7312 5.26363 87.1749 5.17364 87.6648 5.17364C88.1597 5.17364 88.5996 5.26238 88.9846 5.43985C89.3695 5.61482 89.6745 5.85478 89.8994 6.15972C90.1269 6.46467 90.2469 6.81086 90.2594 7.19829H89.3595ZM94.2627 12.9573H91.8931V5.27862H94.3677C95.1126 5.27862 95.75 5.43235 96.2799 5.7398C96.8098 6.04474 97.216 6.48342 97.4984 7.05582C97.7809 7.62572 97.9221 8.3081 97.9221 9.10297C97.9221 9.90283 97.7796 10.5915 97.4947 11.1689C97.2097 11.7438 96.7948 12.1862 96.2499 12.4961C95.705 12.8036 95.0426 12.9573 94.2627 12.9573ZM92.823 12.1324H94.2027C94.8376 12.1324 95.3638 12.01 95.7812 11.765C96.1987 11.5201 96.5098 11.1714 96.7148 10.7189C96.9198 10.2665 97.0223 9.72786 97.0223 9.10297C97.0223 8.48307 96.921 7.94942 96.7186 7.50199C96.5161 7.05207 96.2137 6.70713 95.8112 6.46717C95.4088 6.22471 94.9076 6.10348 94.3077 6.10348H92.823V12.1324ZM105.661 7.67821H104.731C104.676 7.41076 104.58 7.1758 104.442 6.97333C104.307 6.77087 104.142 6.6009 103.947 6.46342C103.755 6.32345 103.541 6.21846 103.306 6.14848C103.071 6.07849 102.826 6.04349 102.571 6.04349C102.106 6.04349 101.685 6.16097 101.308 6.39593C100.933 6.63089 100.634 6.97708 100.412 7.4345C100.192 7.89193 100.082 8.45308 100.082 9.11796C100.082 9.78285 100.192 10.344 100.412 10.8014C100.634 11.2588 100.933 11.605 101.308 11.84C101.685 12.075 102.106 12.1924 102.571 12.1924C102.826 12.1924 103.071 12.1574 103.306 12.0875C103.541 12.0175 103.755 11.9137 103.947 11.7763C104.142 11.6363 104.307 11.4651 104.442 11.2626C104.58 11.0576 104.676 10.8227 104.731 10.5577H105.661C105.591 10.9501 105.463 11.3013 105.278 11.6113C105.093 11.9212 104.863 12.1849 104.588 12.4024C104.314 12.6174 104.005 12.7811 103.662 12.8936C103.322 13.006 102.959 13.0623 102.571 13.0623C101.916 13.0623 101.334 12.9023 100.824 12.5824C100.314 12.2624 99.913 11.8075 99.6206 11.2176C99.3281 10.6277 99.1819 9.92783 99.1819 9.11796C99.1819 8.3081 99.3281 7.60822 99.6206 7.01833C99.913 6.42843 100.314 5.97351 100.824 5.65356C101.334 5.33362 101.916 5.17364 102.571 5.17364C102.959 5.17364 103.322 5.22988 103.662 5.34236C104.005 5.45484 104.314 5.61982 104.588 5.83728C104.863 6.05224 105.093 6.3147 105.278 6.62464C105.463 6.93209 105.591 7.28328 105.661 7.67821ZM107.688 13.0173C107.503 13.0173 107.345 12.9511 107.212 12.8186C107.08 12.6861 107.013 12.5274 107.013 12.3424C107.013 12.1574 107.08 11.9987 107.212 11.8662C107.345 11.7338 107.503 11.6675 107.688 11.6675C107.873 11.6675 108.032 11.7338 108.164 11.8662C108.297 11.9987 108.363 12.1574 108.363 12.3424C108.363 12.4649 108.332 12.5774 108.269 12.6799C108.209 12.7823 108.128 12.8648 108.026 12.9273C107.926 12.9873 107.813 13.0173 107.688 13.0173ZM113.04 5.27862H114.15L116.76 11.6525H116.85L119.459 5.27862H120.569V12.9573H119.699V7.12331H119.624L117.225 12.9573H116.385L113.985 7.12331H113.91V12.9573H113.04V5.27862ZM124.008 13.0923C123.643 13.0923 123.312 13.0235 123.015 12.8861C122.717 12.7461 122.481 12.5449 122.306 12.2824C122.131 12.0175 122.044 11.6975 122.044 11.3226C122.044 10.9926 122.109 10.7252 122.239 10.5202C122.369 10.3128 122.542 10.1503 122.76 10.0328C122.977 9.91533 123.217 9.82784 123.48 9.77035C123.745 9.71036 124.011 9.66287 124.278 9.62788C124.628 9.58288 124.912 9.54914 125.129 9.52664C125.349 9.50165 125.509 9.46041 125.609 9.40292C125.712 9.34543 125.763 9.24544 125.763 9.10297V9.07297C125.763 8.70304 125.662 8.41559 125.459 8.21062C125.259 8.00566 124.956 7.90317 124.548 7.90317C124.126 7.90317 123.795 7.99566 123.555 8.18063C123.315 8.36559 123.146 8.56306 123.048 8.77302L122.209 8.47308C122.359 8.12314 122.558 7.85068 122.808 7.65572C123.061 7.45825 123.336 7.32077 123.633 7.24329C123.933 7.1633 124.228 7.12331 124.518 7.12331C124.703 7.12331 124.916 7.1458 125.156 7.1908C125.398 7.23329 125.632 7.32202 125.857 7.457C126.084 7.59198 126.273 7.79569 126.423 8.06815C126.573 8.3406 126.648 8.70554 126.648 9.16296V12.9573H125.763V12.1774H125.718C125.658 12.3024 125.558 12.4361 125.418 12.5786C125.278 12.7211 125.092 12.8423 124.859 12.9423C124.627 13.0423 124.343 13.0923 124.008 13.0923ZM124.143 12.2974C124.493 12.2974 124.788 12.2287 125.028 12.0912C125.271 11.9537 125.453 11.7763 125.575 11.5588C125.7 11.3413 125.763 11.1126 125.763 10.8727V10.0628C125.725 10.1078 125.643 10.149 125.515 10.1865C125.391 10.2215 125.246 10.2528 125.081 10.2803C124.918 10.3053 124.759 10.3278 124.604 10.3478C124.452 10.3653 124.328 10.3802 124.233 10.3927C124.003 10.4227 123.788 10.4715 123.588 10.539C123.391 10.604 123.231 10.7027 123.108 10.8352C122.988 10.9651 122.928 11.1426 122.928 11.3676C122.928 11.675 123.042 11.9075 123.27 12.065C123.5 12.2199 123.791 12.2974 124.143 12.2974ZM130.767 7.19829V7.94817H127.783V7.19829H130.767ZM128.653 5.81853H129.538V11.3076C129.538 11.5575 129.574 11.745 129.646 11.87C129.721 11.9925 129.816 12.075 129.931 12.1174C130.049 12.1574 130.172 12.1774 130.302 12.1774C130.4 12.1774 130.48 12.1724 130.542 12.1624C130.605 12.1499 130.655 12.1399 130.692 12.1324L130.872 12.9273C130.812 12.9498 130.729 12.9723 130.621 12.9948C130.514 13.0198 130.377 13.0323 130.212 13.0323C129.963 13.0323 129.718 12.9786 129.478 12.8711C129.24 12.7636 129.043 12.5999 128.885 12.3799C128.73 12.1599 128.653 11.8825 128.653 11.5475V5.81853ZM134.376 13.0773C133.836 13.0773 133.371 12.9498 132.981 12.6948C132.591 12.4399 132.292 12.0887 132.082 11.6413C131.872 11.1939 131.767 10.6827 131.767 10.1078C131.767 9.52289 131.874 9.00673 132.089 8.55931C132.307 8.10939 132.609 7.7582 132.996 7.50574C133.386 7.25079 133.841 7.12331 134.361 7.12331C134.766 7.12331 135.131 7.19829 135.456 7.34827C135.781 7.49824 136.047 7.70821 136.255 7.97816C136.462 8.24811 136.591 8.56306 136.641 8.923H135.756C135.688 8.66054 135.538 8.42808 135.306 8.22562C135.076 8.02065 134.766 7.91817 134.376 7.91817C134.031 7.91817 133.729 8.00816 133.469 8.18812C133.211 8.36559 133.01 8.6168 132.865 8.94174C132.723 9.26419 132.651 9.64287 132.651 10.0778C132.651 10.5227 132.721 10.9102 132.861 11.2401C133.004 11.57 133.204 11.8262 133.461 12.0087C133.721 12.1912 134.026 12.2824 134.376 12.2824C134.606 12.2824 134.815 12.2424 135.002 12.1624C135.19 12.0825 135.348 11.9675 135.478 11.8175C135.608 11.6675 135.701 11.4876 135.756 11.2776H136.641C136.591 11.6175 136.467 11.9237 136.27 12.1962C136.075 12.4661 135.816 12.6811 135.493 12.8411C135.174 12.9985 134.801 13.0773 134.376 13.0773ZM138.819 9.4929V12.9573H137.934V5.27862H138.819V8.09814H138.894C139.029 7.80069 139.232 7.56448 139.502 7.38951C139.774 7.21204 140.136 7.12331 140.589 7.12331C140.981 7.12331 141.325 7.20204 141.62 7.35952C141.915 7.51449 142.144 7.7532 142.306 8.07564C142.471 8.39559 142.553 8.80302 142.553 9.29793V12.9573H141.669V9.35792C141.669 8.9005 141.55 8.54681 141.312 8.29686C141.077 8.0444 140.751 7.91817 140.334 7.91817C140.044 7.91817 139.784 7.97941 139.554 8.10189C139.327 8.22437 139.147 8.40309 139.014 8.63805C138.884 8.87301 138.819 9.15796 138.819 9.4929ZM149.646 7.19829V7.94817H146.662V7.19829H149.646ZM147.532 5.81853H148.417V11.3076C148.417 11.5575 148.453 11.745 148.525 11.87C148.6 11.9925 148.695 12.075 148.81 12.1174C148.928 12.1574 149.051 12.1774 149.181 12.1774C149.279 12.1774 149.359 12.1724 149.421 12.1624C149.484 12.1499 149.534 12.1399 149.571 12.1324L149.751 12.9273C149.691 12.9498 149.608 12.9723 149.5 12.9948C149.393 13.0198 149.256 13.0323 149.091 13.0323C148.841 13.0323 148.597 12.9786 148.357 12.8711C148.119 12.7636 147.922 12.5999 147.764 12.3799C147.609 12.1599 147.532 11.8825 147.532 11.5475V5.81853ZM151.986 9.4929V12.9573H151.101V5.27862H151.986V8.09814H152.061C152.196 7.80069 152.398 7.56448 152.668 7.38951C152.941 7.21204 153.303 7.12331 153.756 7.12331C154.148 7.12331 154.492 7.20204 154.787 7.35952C155.082 7.51449 155.31 7.7532 155.473 8.07564C155.638 8.39559 155.72 8.80302 155.72 9.29793V12.9573H154.835V9.35792C154.835 8.9005 154.717 8.54681 154.479 8.29686C154.244 8.0444 153.918 7.91817 153.501 7.91817C153.211 7.91817 152.951 7.97941 152.721 8.10189C152.493 8.22437 152.313 8.40309 152.181 8.63805C152.051 8.87301 151.986 9.15796 151.986 9.4929ZM159.754 13.0773C159.199 13.0773 158.72 12.9548 158.318 12.7098C157.918 12.4624 157.609 12.1174 157.392 11.675C157.177 11.2301 157.069 10.7127 157.069 10.1228C157.069 9.53289 157.177 9.01298 157.392 8.56306C157.609 8.11064 157.911 7.7582 158.299 7.50574C158.689 7.25079 159.144 7.12331 159.664 7.12331C159.964 7.12331 160.26 7.1733 160.552 7.27328C160.845 7.37326 161.111 7.53574 161.351 7.7607C161.591 7.98316 161.782 8.27811 161.925 8.64555C162.067 9.01298 162.138 9.4654 162.138 10.0028V10.3777H157.699V9.61288H161.238C161.238 9.28794 161.173 8.99799 161.043 8.74303C160.916 8.48807 160.733 8.28686 160.496 8.13938C160.261 7.99191 159.984 7.91817 159.664 7.91817C159.311 7.91817 159.006 8.00566 158.749 8.18063C158.494 8.3531 158.298 8.57806 158.16 8.85551C158.023 9.13296 157.954 9.43041 157.954 9.74786V10.2578C157.954 10.6927 158.029 11.0614 158.179 11.3638C158.331 11.6638 158.543 11.8925 158.813 12.05C159.083 12.2049 159.396 12.2824 159.754 12.2824C159.986 12.2824 160.196 12.2499 160.384 12.1849C160.574 12.1174 160.737 12.0175 160.875 11.885C161.012 11.75 161.118 11.5825 161.193 11.3826L162.048 11.6225C161.958 11.9125 161.807 12.1674 161.595 12.3874C161.382 12.6049 161.12 12.7748 160.807 12.8973C160.495 13.0173 160.144 13.0773 159.754 13.0773ZM167.339 9.4929V12.9573H166.454V7.19829H167.309V8.09814H167.384C167.519 7.80569 167.724 7.57073 167.998 7.39326C168.273 7.21329 168.628 7.12331 169.063 7.12331C169.453 7.12331 169.794 7.20329 170.087 7.36327C170.379 7.52074 170.607 7.7607 170.769 8.08314C170.932 8.40309 171.013 8.80802 171.013 9.29793V12.9573H170.128V9.35792C170.128 8.9055 170.011 8.55306 169.776 8.3006C169.541 8.04565 169.218 7.91817 168.808 7.91817C168.526 7.91817 168.273 7.97941 168.051 8.10189C167.831 8.22437 167.657 8.40309 167.53 8.63805C167.402 8.87301 167.339 9.15796 167.339 9.4929ZM175.044 13.0773C174.49 13.0773 174.011 12.9548 173.608 12.7098C173.209 12.4624 172.9 12.1174 172.682 11.675C172.467 11.2301 172.36 10.7127 172.36 10.1228C172.36 9.53289 172.467 9.01298 172.682 8.56306C172.9 8.11064 173.202 7.7582 173.59 7.50574C173.98 7.25079 174.435 7.12331 174.954 7.12331C175.254 7.12331 175.551 7.1733 175.843 7.27328C176.136 7.37326 176.402 7.53574 176.642 7.7607C176.882 7.98316 177.073 8.27811 177.215 8.64555C177.358 9.01298 177.429 9.4654 177.429 10.0028V10.3777H172.99V9.61288H176.529C176.529 9.28794 176.464 8.99799 176.334 8.74303C176.207 8.48807 176.024 8.28686 175.787 8.13938C175.552 7.99191 175.274 7.91817 174.954 7.91817C174.602 7.91817 174.297 8.00566 174.04 8.18063C173.785 8.3531 173.588 8.57806 173.451 8.85551C173.314 9.13296 173.245 9.43041 173.245 9.74786V10.2578C173.245 10.6927 173.32 11.0614 173.47 11.3638C173.622 11.6638 173.833 11.8925 174.103 12.05C174.373 12.2049 174.687 12.2824 175.044 12.2824C175.277 12.2824 175.487 12.2499 175.674 12.1849C175.864 12.1174 176.028 12.0175 176.166 11.885C176.303 11.75 176.409 11.5825 176.484 11.3826L177.339 11.6225C177.249 11.9125 177.098 12.1674 176.885 12.3874C176.673 12.6049 176.41 12.7748 176.098 12.8973C175.786 13.0173 175.434 13.0773 175.044 13.0773ZM181.28 7.19829V7.94817H178.295V7.19829H181.28ZM179.165 5.81853H180.05V11.3076C180.05 11.5575 180.086 11.745 180.159 11.87C180.234 11.9925 180.329 12.075 180.444 12.1174C180.561 12.1574 180.685 12.1774 180.815 12.1774C180.912 12.1774 180.992 12.1724 181.055 12.1624C181.117 12.1499 181.167 12.1399 181.205 12.1324L181.385 12.9273C181.325 12.9498 181.241 12.9723 181.133 12.9948C181.026 13.0198 180.89 13.0323 180.725 13.0323C180.475 13.0323 180.23 12.9786 179.99 12.8711C179.752 12.7636 179.555 12.5999 179.397 12.3799C179.242 12.1599 179.165 11.8825 179.165 11.5475V5.81853ZM183.915 12.9573L182.161 7.19829H183.091L184.335 11.6075H184.395L185.625 7.19829H186.57L187.785 11.5925H187.845L189.09 7.19829H190.019L188.265 12.9573H187.395L186.135 8.53307H186.045L184.785 12.9573H183.915ZM193.333 13.0773C192.813 13.0773 192.357 12.9536 191.964 12.7061C191.574 12.4586 191.269 12.1124 191.05 11.6675C190.832 11.2226 190.723 10.7027 190.723 10.1078C190.723 9.5079 190.832 8.98424 191.05 8.53681C191.269 8.08939 191.574 7.74195 191.964 7.49449C192.357 7.24704 192.813 7.12331 193.333 7.12331C193.853 7.12331 194.308 7.24704 194.698 7.49449C195.09 7.74195 195.395 8.08939 195.612 8.53681C195.832 8.98424 195.942 9.5079 195.942 10.1078C195.942 10.7027 195.832 11.2226 195.612 11.6675C195.395 12.1124 195.09 12.4586 194.698 12.7061C194.308 12.9536 193.853 13.0773 193.333 13.0773ZM193.333 12.2824C193.728 12.2824 194.053 12.1812 194.308 11.9787C194.563 11.7763 194.751 11.5101 194.874 11.1801C194.996 10.8502 195.058 10.4927 195.058 10.1078C195.058 9.72286 194.996 9.36417 194.874 9.03173C194.751 8.69929 194.563 8.43058 194.308 8.22562C194.053 8.02065 193.728 7.91817 193.333 7.91817C192.938 7.91817 192.613 8.02065 192.358 8.22562C192.103 8.43058 191.914 8.69929 191.792 9.03173C191.669 9.36417 191.608 9.72286 191.608 10.1078C191.608 10.4927 191.669 10.8502 191.792 11.1801C191.914 11.5101 192.103 11.7763 192.358 11.9787C192.613 12.1812 192.938 12.2824 193.333 12.2824ZM197.293 12.9573V7.19829H198.148V8.06815H198.208C198.313 7.78319 198.503 7.55198 198.778 7.37451C199.053 7.19704 199.363 7.10831 199.708 7.10831C199.773 7.10831 199.854 7.10956 199.951 7.11206C200.049 7.11456 200.123 7.11831 200.173 7.12331V8.02315C200.143 8.01565 200.074 8.00441 199.966 7.98941C199.861 7.97191 199.75 7.96316 199.633 7.96316C199.353 7.96316 199.103 8.0219 198.883 8.13938C198.665 8.25436 198.493 8.41434 198.365 8.6193C198.24 8.82177 198.178 9.05298 198.178 9.31293V12.9573H197.293ZM202.046 10.8577L202.031 9.76285H202.211L204.731 7.19829H205.826L203.141 9.91283H203.066L202.046 10.8577ZM201.222 12.9573V5.27862H202.106V12.9573H201.222ZM204.881 12.9573L202.631 10.1078L203.261 9.4929L206.006 12.9573H204.881ZM212.274 13.0773C211.734 13.0773 211.269 12.9498 210.879 12.6948C210.489 12.4399 210.189 12.0887 209.979 11.6413C209.769 11.1939 209.664 10.6827 209.664 10.1078C209.664 9.52289 209.772 9.00673 209.987 8.55931C210.204 8.10939 210.506 7.7582 210.894 7.50574C211.284 7.25079 211.739 7.12331 212.259 7.12331C212.664 7.12331 213.029 7.19829 213.354 7.34827C213.678 7.49824 213.945 7.70821 214.152 7.97816C214.36 8.24811 214.488 8.56306 214.538 8.923H213.653C213.586 8.66054 213.436 8.42808 213.204 8.22562C212.974 8.02065 212.664 7.91817 212.274 7.91817C211.929 7.91817 211.626 8.00816 211.366 8.18812C211.109 8.36559 210.908 8.6168 210.763 8.94174C210.62 9.26419 210.549 9.64287 210.549 10.0778C210.549 10.5227 210.619 10.9102 210.759 11.2401C210.901 11.57 211.101 11.8262 211.359 12.0087C211.619 12.1912 211.924 12.2824 212.274 12.2824C212.504 12.2824 212.712 12.2424 212.9 12.1624C213.087 12.0825 213.246 11.9675 213.376 11.8175C213.506 11.6675 213.598 11.4876 213.653 11.2776H214.538C214.488 11.6175 214.365 11.9237 214.167 12.1962C213.972 12.4661 213.713 12.6811 213.391 12.8411C213.071 12.9985 212.699 13.0773 212.274 13.0773ZM217.527 13.0923C217.162 13.0923 216.83 13.0235 216.533 12.8861C216.235 12.7461 215.999 12.5449 215.824 12.2824C215.649 12.0175 215.562 11.6975 215.562 11.3226C215.562 10.9926 215.627 10.7252 215.757 10.5202C215.887 10.3128 216.061 10.1503 216.278 10.0328C216.495 9.91533 216.735 9.82784 216.998 9.77035C217.263 9.71036 217.529 9.66287 217.796 9.62788C218.146 9.58288 218.43 9.54914 218.648 9.52664C218.868 9.50165 219.028 9.46041 219.127 9.40292C219.23 9.34543 219.281 9.24544 219.281 9.10297V9.07297C219.281 8.70304 219.18 8.41559 218.978 8.21062C218.778 8.00566 218.474 7.90317 218.066 7.90317C217.644 7.90317 217.313 7.99566 217.073 8.18063C216.833 8.36559 216.664 8.56306 216.567 8.77302L215.727 8.47308C215.877 8.12314 216.077 7.85068 216.327 7.65572C216.579 7.45825 216.854 7.32077 217.152 7.24329C217.452 7.1633 217.746 7.12331 218.036 7.12331C218.221 7.12331 218.434 7.1458 218.674 7.1908C218.916 7.23329 219.15 7.32202 219.375 7.457C219.602 7.59198 219.791 7.79569 219.941 8.06815C220.091 8.3406 220.166 8.70554 220.166 9.16296V12.9573H219.281V12.1774H219.236C219.176 12.3024 219.076 12.4361 218.936 12.5786C218.796 12.7211 218.61 12.8423 218.378 12.9423C218.145 13.0423 217.861 13.0923 217.527 13.0923ZM217.662 12.2974C218.011 12.2974 218.306 12.2287 218.546 12.0912C218.789 11.9537 218.971 11.7763 219.094 11.5588C219.219 11.3413 219.281 11.1126 219.281 10.8727V10.0628C219.244 10.1078 219.161 10.149 219.034 10.1865C218.909 10.2215 218.764 10.2528 218.599 10.2803C218.436 10.3053 218.278 10.3278 218.123 10.3478C217.97 10.3653 217.846 10.3802 217.751 10.3927C217.522 10.4227 217.307 10.4715 217.107 10.539C216.909 10.604 216.749 10.7027 216.627 10.8352C216.507 10.9651 216.447 11.1426 216.447 11.3676C216.447 11.675 216.56 11.9075 216.788 12.065C217.018 12.2199 217.309 12.2974 217.662 12.2974ZM221.781 12.9573V7.19829H222.636V8.06815H222.696C222.801 7.78319 222.991 7.55198 223.266 7.37451C223.541 7.19704 223.851 7.10831 224.196 7.10831C224.261 7.10831 224.342 7.10956 224.439 7.11206C224.537 7.11456 224.611 7.11831 224.661 7.12331V8.02315C224.631 8.01565 224.562 8.00441 224.454 7.98941C224.349 7.97191 224.238 7.96316 224.121 7.96316C223.841 7.96316 223.591 8.0219 223.371 8.13938C223.153 8.25436 222.981 8.41434 222.853 8.6193C222.728 8.82177 222.666 9.05298 222.666 9.31293V12.9573H221.781ZM227.949 13.0773C227.394 13.0773 226.915 12.9548 226.513 12.7098C226.113 12.4624 225.804 12.1174 225.587 11.675C225.372 11.2301 225.264 10.7127 225.264 10.1228C225.264 9.53289 225.372 9.01298 225.587 8.56306C225.804 8.11064 226.107 7.7582 226.494 7.50574C226.884 7.25079 227.339 7.12331 227.859 7.12331C228.159 7.12331 228.455 7.1733 228.747 7.27328C229.04 7.37326 229.306 7.53574 229.546 7.7607C229.786 7.98316 229.977 8.27811 230.12 8.64555C230.262 9.01298 230.333 9.4654 230.333 10.0028V10.3777H225.894V9.61288H229.434C229.434 9.28794 229.369 8.99799 229.239 8.74303C229.111 8.48807 228.929 8.28686 228.691 8.13938C228.456 7.99191 228.179 7.91817 227.859 7.91817C227.506 7.91817 227.201 8.00566 226.944 8.18063C226.689 8.3531 226.493 8.57806 226.355 8.85551C226.218 9.13296 226.149 9.43041 226.149 9.74786V10.2578C226.149 10.6927 226.224 11.0614 226.374 11.3638C226.527 11.6638 226.738 11.8925 227.008 12.05C227.278 12.2049 227.591 12.2824 227.949 12.2824C228.181 12.2824 228.391 12.2499 228.579 12.1849C228.769 12.1174 228.932 12.0175 229.07 11.885C229.207 11.75 229.314 11.5825 229.389 11.3826L230.243 11.6225C230.153 11.9125 230.002 12.1674 229.79 12.3874C229.577 12.6049 229.315 12.7748 229.002 12.8973C228.69 13.0173 228.339 13.0773 227.949 13.0773ZM234.244 7.19829V7.94817H231.14V7.19829H234.244ZM232.069 12.9573V6.40343C232.069 6.07349 232.147 5.79854 232.302 5.57857C232.457 5.35861 232.658 5.19364 232.905 5.08366C233.153 4.97368 233.414 4.91869 233.689 4.91869C233.907 4.91869 234.084 4.93618 234.221 4.97118C234.359 5.00617 234.461 5.03867 234.529 5.06866L234.274 5.83353C234.229 5.81853 234.166 5.79979 234.086 5.77729C234.009 5.75479 233.907 5.74354 233.779 5.74354C233.487 5.74354 233.275 5.81728 233.145 5.96476C233.018 6.11223 232.954 6.32844 232.954 6.6134V12.9573H232.069ZM239.113 10.6027V7.19829H239.998V12.9573H239.113V11.9825H239.053C238.918 12.2749 238.709 12.5236 238.424 12.7286C238.139 12.9311 237.779 13.0323 237.344 13.0323C236.984 13.0323 236.664 12.9536 236.384 12.7961C236.104 12.6361 235.884 12.3962 235.724 12.0762C235.564 11.7538 235.484 11.3476 235.484 10.8577V7.19829H236.369V10.7977C236.369 11.2176 236.486 11.5525 236.721 11.8025C236.959 12.0525 237.261 12.1774 237.629 12.1774C237.849 12.1774 238.072 12.1212 238.3 12.0087C238.53 11.8962 238.722 11.7238 238.877 11.4913C239.035 11.2588 239.113 10.9626 239.113 10.6027ZM242.504 5.27862V12.9573H241.619V5.27862H242.504ZM245.009 5.27862V12.9573H244.124V5.27862H245.009ZM247.2 15.1169C247.05 15.1169 246.916 15.1044 246.799 15.0794C246.681 15.0569 246.6 15.0344 246.555 15.012L246.78 14.2321C246.995 14.2871 247.185 14.3071 247.35 14.2921C247.515 14.2771 247.661 14.2033 247.789 14.0709C247.918 13.9409 248.037 13.7297 248.145 13.4372L248.31 12.9873L246.18 7.19829H247.14L248.73 11.7875H248.79L250.379 7.19829H251.339L248.895 13.7972C248.785 14.0946 248.648 14.3408 248.486 14.5358C248.323 14.7332 248.135 14.8795 247.92 14.9745C247.707 15.0694 247.467 15.1169 247.2 15.1169ZM252.791 13.0173C252.606 13.0173 252.447 12.9511 252.315 12.8186C252.182 12.6861 252.116 12.5274 252.116 12.3424C252.116 12.1574 252.182 11.9987 252.315 11.8662C252.447 11.7338 252.606 11.6675 252.791 11.6675C252.976 11.6675 253.135 11.7338 253.267 11.8662C253.4 11.9987 253.466 12.1574 253.466 12.3424C253.466 12.4649 253.435 12.5774 253.372 12.6799C253.312 12.7823 253.231 12.8648 253.129 12.9273C253.029 12.9873 252.916 13.0173 252.791 13.0173Z" fill="white"/>
<defs>
<filter id="filter0_dd_6040_10478" x="-0.000229989" y="0.000746594" width="19.4233" height="19.4233" filterUnits="userSpaceOnUse" color-interpolation-filters="sRGB">
<feFlood flood-opacity="0" result="BackgroundImageFix"/>
<feColorMatrix in="SourceAlpha" type="matrix" values="0 0 0 0 0 0 0 0 0 0 0 0 0 0 0 0 0 0 127 0" result="hardAlpha"/>
<feOffset dx="0.255168" dy="0.255168"/>
<feGaussianBlur stdDeviation="0.446543"/>
<feComposite in2="hardAlpha" operator="out"/>
<feColorMatrix type="matrix" values="0 0 0 0 0 0 0 0 0 0 0 0 0 0 0 0 0 0 0.16 0"/>
<feBlend mode="normal" in2="BackgroundImageFix" result="effect1_dropShadow_6040_10478"/>
<feColorMatrix in="SourceAlpha" type="matrix" values="0 0 0 0 0 0 0 0 0 0 0 0 0 0 0 0 0 0 127 0" result="hardAlpha"/>
<feOffset dx="0.255168" dy="0.255168"/>
<feGaussianBlur stdDeviation="1.10573"/>
<feComposite in2="hardAlpha" operator="out"/>
<feColorMatrix type="matrix" values="0 0 0 0 0 0 0 0 0 0 0 0 0 0 0 0 0 0 0.26 0"/>
<feBlend mode="normal" in2="effect1_dropShadow_6040_10478" result="effect2_dropShadow_6040_10478"/>
<feBlend mode="normal" in="SourceGraphic" in2="effect2_dropShadow_6040_10478" result="shape"/>
</filter>
</defs>
</svg>
